<svg id="YT_Play_icon" data-name="YT Play icon" xmlns="http://www.w3.org/2000/svg" width="66.292" height="46.706" viewBox="0 0 66.292 46.706">
  <path id="Path_197" data-name="Path 197" d="M72.906,41.293a8.329,8.329,0,0,0-5.861-5.9C61.876,34,41.146,34,41.146,34s-20.73,0-25.9,1.394a8.329,8.329,0,0,0-5.861,5.9C8,46.5,8,57.353,8,57.353s0,10.856,1.385,16.06a8.329,8.329,0,0,0,5.861,5.9c5.17,1.394,25.9,1.394,25.9,1.394s20.73,0,25.9-1.394a8.329,8.329,0,0,0,5.861-5.9c1.385-5.2,1.385-16.06,1.385-16.06S74.292,46.5,72.906,41.293Z" transform="translate(-8 -34)" fill="red"/>
  <path id="Path_198" data-name="Path 198" d="M78,89.545l17.326-9.856L78,69.831Z" transform="translate(-51.634 -56.335)" fill="#fff"/>
</svg>
