<svg id="Group_108" data-name="Group 108" xmlns="http://www.w3.org/2000/svg" width="19.232" height="19.232" viewBox="0 0 19.232 19.232">
  <path id="Path_191" data-name="Path 191" d="M128.478,137.326a.646.646,0,0,0,.458.2.628.628,0,0,0,.458-.2l3.558-3.558,3.558,3.558a.647.647,0,0,0,.458.2.628.628,0,0,0,.458-.2.666.666,0,0,0,0-.928l-3.547-3.547,3.547-3.558a.666.666,0,0,0,0-.928.655.655,0,0,0-.928,0l-3.547,3.558-3.558-3.547a.656.656,0,0,0-.928.928l3.558,3.547-3.547,3.558A.633.633,0,0,0,128.478,137.326Z" transform="translate(-123.337 -123.235)" fill="#00bdf2"/>
  <path id="Path_192" data-name="Path 192" d="M9.616,19.232A9.616,9.616,0,1,0,0,9.616,9.624,9.624,0,0,0,9.616,19.232Zm0-17.922A8.306,8.306,0,1,1,1.31,9.616,8.31,8.31,0,0,1,9.616,1.31Z" fill="#00bdf2"/>
</svg>
