<svg xmlns="http://www.w3.org/2000/svg" width="11.284" height="10.612" viewBox="249.812 789 11.284 10.612"><path d="m260.72 789.432-.007-.009-.035-.033a1.363 1.363 0 0 0-1.894-.014 19.556 19.556 0 0 0-3.169 3.44 79.71 79.71 0 0 0-1.62 2.423l-.099.152a8.875 8.875 0 0 0-1.779-1.835 1.374 1.374 0 1 0-1.715 2.138c.392.322.752.683 1.073 1.076.436.646.837 1.315 1.2 2.005.224.438.642.744 1.126.826a1.305 1.305 0 0 0 1.147-.428 1.94 1.94 0 0 0 .323-.52 21.81 21.81 0 0 1 5.284-7.2c.33-.25.53-.637.54-1.051.011-.361-.125-.71-.376-.97" fill="#fff" fill-rule="evenodd" data-name="Icon Tick"/></svg>