<svg xmlns="http://www.w3.org/2000/svg" width="24" height="24" viewBox="0 0 24 24">
  <g id="Icon_Tick" data-name="Icon Tick" transform="translate(-210 -895)">
    <circle id="Circle" cx="12" cy="12" r="12" transform="translate(210 895)" fill="#a6c523"/>
    <path id="Icon_Tick-2" data-name="Icon Tick" d="M10.907.432,10.9.423,10.866.39A1.363,1.363,0,0,0,8.972.376,19.556,19.556,0,0,0,5.8,3.815c-.552.786-1.081,1.6-1.62,2.424l-.1.152A8.875,8.875,0,0,0,2.3,4.556,1.374,1.374,0,0,0,.441,6.576a1.534,1.534,0,0,0,.148.118A7.653,7.653,0,0,1,1.662,7.77a21.5,21.5,0,0,1,1.2,2,1.558,1.558,0,0,0,1.125.827,1.361,1.361,0,0,0,.172.011,1.3,1.3,0,0,0,.976-.439,1.94,1.94,0,0,0,.322-.52,21.81,21.81,0,0,1,5.284-7.2,1.362,1.362,0,0,0,.54-1.051,1.336,1.336,0,0,0-.376-.969" transform="translate(216.813 902)" fill="#fff"/>
  </g>
</svg>
