<svg id="Group_393" data-name="Group 393" xmlns="http://www.w3.org/2000/svg" width="300" height="72.216" viewBox="0 0 300 72.216">
  <g id="Group_48" data-name="Group 48" transform="translate(0 0)">
    <g id="Group_40" data-name="Group 40" transform="translate(0 4.191)">
      <path id="Path_20" data-name="Path 20" d="M134.856,73.41c.485,2.674-2.791,5.47-7.159,6.2L93.842,85.321c-4.368.729-8.373-.851-8.737-3.525L77.1,33.664c-.485-2.8,2.791-5.591,7.159-6.32l33.855-5.713c4.368-.729,8.373.851,8.737,3.525Z" transform="translate(-77.049 -21.454)" fill="#ed1c24"/>
      <g id="Group_39" data-name="Group 39" transform="translate(6.57 18.042)">
        <path id="Path_21" data-name="Path 21" d="M102.879,59.362c-.485,2.427-.971,4.368-1.335,5.7a18.036,18.036,0,0,1-.971,2.791,13.242,13.242,0,0,1-.728,1.335,4.058,4.058,0,0,1-2.791,1.7,4.8,4.8,0,0,1-2.67-.364,4.415,4.415,0,0,1-1.941-1.7,8.791,8.791,0,0,1-1.213-3.034c0-.121-.121-.971-.364-2.427a10.166,10.166,0,0,1-.243-1.213L86.5,51.353l-3.762-9.707a3.7,3.7,0,0,1,0-2.791,3.79,3.79,0,0,1,1.941-1.941,3.7,3.7,0,0,1,2.791,0,3.619,3.619,0,0,1,1.941,2.063l6.674,17.595.121-.243,1.456-7.159c.243-1.213.485-2.063.607-2.67l.364-1.092a2.4,2.4,0,0,1,.728-1.335,3.816,3.816,0,0,1,6.431.121,9.112,9.112,0,0,1,.849,2.184,7.736,7.736,0,0,0,.243,1.092A4.29,4.29,0,0,0,107,48.2a.446.446,0,0,0,.121.364l3.155,8.979.485,1.213c.849-2.306,2.184-6.067,3.883-11.406s2.548-8.251,2.791-8.615a3.81,3.81,0,0,1,1.82-2.063,3.693,3.693,0,0,1,2.791-.243,3.811,3.811,0,0,1,2.063,1.82,3.205,3.205,0,0,1,.121,2.791c-.121.485-.849,2.67-2.063,6.553l-3.519,10.8a48.846,48.846,0,0,1-2.791,7.038,20,20,0,0,1-1.335,2.306,5.1,5.1,0,0,1-4.975,2.306,3.33,3.33,0,0,1-2.184-1.213,2.131,2.131,0,0,1-.485-.607,5.276,5.276,0,0,1-.485-.849l-.849-1.941c-.485-1.335-1.213-3.155-2.063-5.46Z" transform="translate(-82.463 -36.269)" fill="#fff"/>
      </g>
    </g>
    <g id="Group_42" data-name="Group 42" transform="translate(150.504 10.458)">
      <path id="Path_22" data-name="Path 22" d="M244.577,78.995c-.364,2.432-3.762,3.769-7.645,3.283L207.2,77.657c-3.883-.608-6.674-3.039-6.31-5.349L207.325,30c.364-2.431,3.762-3.769,7.645-3.283l29.729,4.62c3.883.608,6.674,3.039,6.31,5.349Z" transform="translate(-200.862 -26.619)" fill="#a9cf38"/>
      <g id="Group_41" data-name="Group 41" transform="translate(14.714 5.195)">
        <path id="Path_23" data-name="Path 23" d="M220.875,60.944V71.4a3.778,3.778,0,0,1-1.092,2.676,3.564,3.564,0,0,1-2.67,1.095,3.76,3.76,0,0,1-2.67-1.095,3.581,3.581,0,0,1-1.092-2.676V61.917c0-3.163-.121-7.176-.243-11.8s-.121-13.745-.121-15.448a3.778,3.778,0,0,1,1.092-2.676,3.564,3.564,0,0,1,2.67-1.095,3.76,3.76,0,0,1,2.67,1.095,3.581,3.581,0,0,1,1.092,2.676c0,1.825.121,10.826.243,15.2a10.951,10.951,0,0,1,5.946-.122,13.352,13.352,0,0,1,4.854,2.554,11.565,11.565,0,0,1,3.276,4.379,18.946,18.946,0,0,1,.971,2.8,24.665,24.665,0,0,1,.485,3.163c0,1.095.121,2.068.121,2.8a24.567,24.567,0,0,1-.121,2.8,19.517,19.517,0,0,0-.121,2.068,3.427,3.427,0,0,1-1.213,2.554,3.212,3.212,0,0,1-2.67.973,3.412,3.412,0,0,1-2.548-1.216,3.229,3.229,0,0,1-.971-2.676,19.949,19.949,0,0,1,.121-2.433,21,21,0,0,0,.121-2.433V63.133a8.484,8.484,0,0,0-.243-1.946,7.886,7.886,0,0,0-.485-1.581,4.376,4.376,0,0,0-1.335-1.7A4.2,4.2,0,0,0,225,56.93a2.475,2.475,0,0,0-2.912.973,1.479,1.479,0,0,0-.121.608l-.121.243a.448.448,0,0,1-.121.365v.243c-.121.487-.243.973-.364,1.338Z" transform="translate(-212.988 -30.9)" fill="#fff"/>
      </g>
    </g>
    <g id="Group_43" data-name="Group 43" transform="translate(60.7 18.914)">
      <ellipse id="Ellipse_1" data-name="Ellipse 1" cx="19.051" cy="24.147" rx="19.051" ry="24.147" fill="#f7941e"/>
      <path id="Path_24" data-name="Path 24" d="M155.786,64.427a54.848,54.848,0,0,1-1.092-9.465v-8.13a4.1,4.1,0,0,0-.728-2.427,2.6,2.6,0,0,0-2.184-1.092h-.121a2.933,2.933,0,0,0-2.305,1.213,5.835,5.835,0,0,0-.971,2.67,23.541,23.541,0,0,0-.121,3.276c0,1.456,0,3.4.121,5.824v1.942a9.517,9.517,0,0,1-1.335,5.46,4.688,4.688,0,0,1-4,2.184h-.121a2.561,2.561,0,0,1-2.548-1.577,11.779,11.779,0,0,1-1.213-5.946V56.3c0-1.941.121-3.883.243-6.067q.364-4.186.364-5.1v-.121a2.592,2.592,0,0,0-.971-2.063,3.166,3.166,0,0,0-2.063-.849h-.121a3.166,3.166,0,0,0-2.548,1.335,6.366,6.366,0,0,0-1.092,2.912,56.337,56.337,0,0,0-.485,8.13c0,1.213,0,2.427.121,3.762q.182,6.553,2.548,10.193a7.98,7.98,0,0,0,6.917,3.762h.607a11.061,11.061,0,0,0,7.766-3.762,6.341,6.341,0,0,0,.849,1.82,4.751,4.751,0,0,0,.971,1.213,2.239,2.239,0,0,0,1.456.607h.121a3.3,3.3,0,0,0,3.034-3.519A29.921,29.921,0,0,1,155.786,64.427Z" transform="translate(-125.814 -31.664)" fill="#fff"/>
    </g>
    <g id="Group_45" data-name="Group 45" transform="translate(101.958 12.225)">
      <ellipse id="Ellipse_2" data-name="Ellipse 2" cx="23.661" cy="22.812" rx="23.661" ry="22.812" transform="matrix(0.061, -0.998, 0.998, 0.061, 0, 47.234)" fill="#0053a5"/>
      <g id="Group_44" data-name="Group 44" transform="translate(11.335 8.551)">
        <path id="Path_25" data-name="Path 25" d="M181.7,40.7c-2.063.243-4.611,1.577-4.368,4,.364,3.034,4.611,3.762,6.917,4.247,9.1,1.941,10.8,5.946,11.042,9.95.364,4.975-2.305,11.528-10.435,12.134-5.946.364-12.5-2.306-14.44-8.858-.971-3.4,3.155-4.975,4.49-2.548a10.4,10.4,0,0,0,9.95,5.339,4.764,4.764,0,0,0,4.368-5.46c-.364-3.034-4.247-3.883-6.674-4.368-9.465-1.82-10.921-5.946-11.285-9.465s1.335-9.707,9.829-10.557a13.9,13.9,0,0,1,10.8,3.276c2.306,2.306.485,6.188-2.427,4.975C188.494,42.88,186.067,40.21,181.7,40.7Z" transform="translate(-170.267 -35.034)" fill="#fff"/>
      </g>
    </g>
    <g id="Group_46" data-name="Group 46" transform="translate(244.123 8.211)">
      <ellipse id="Ellipse_3" data-name="Ellipse 3" cx="27.214" cy="21.348" rx="27.214" ry="21.348" transform="translate(0 52.405) rotate(-74.235)" fill="#7d287d"/>
      <path id="Path_26" data-name="Path 26" d="M313.03,66.52c-.485-2.184-1.456-3.883-1.456-8.009-.121-4,1.213-8.251,1.7-12.741a10.839,10.839,0,0,1,.243-1.335,3.675,3.675,0,0,0-1.335-3.276,4.887,4.887,0,0,0-2.427-.971,5.908,5.908,0,0,0-1.456.121,4.281,4.281,0,0,0-1.577.971,8.6,8.6,0,0,0-4.247-1.577h-.364c-3.883-.243-6.917,2.063-8.858,4.49A21.337,21.337,0,0,0,289,55.235a14.778,14.778,0,0,0,0,3.276,15.962,15.962,0,0,0,2.184,6.8,9.343,9.343,0,0,0,6.31,4.368h.364c4.854.243,7.4-4.247,7.645-4.854,0,0,.364,1.213.485,1.577,1.456,3.883,4,3.762,5.339,3.034C312.909,68.461,313.151,67.733,313.03,66.52Zm-14.2-2.427c-1.941-.243-3.762-3.155-2.669-10.436,1.092-6.917,5.1-8.373,6.067-8.373h0a3.667,3.667,0,0,1,2.67,1.577C305.992,48.561,305.143,64.942,298.833,64.093Z" transform="translate(-275.513 -21.526)" fill="#fff"/>
    </g>
    <g id="Group_47" data-name="Group 47" transform="translate(203.648)">
      <path id="Path_27" data-name="Path 27" d="M288.15,80.953c0,3.16-3.155,5.712-7.038,5.712L251.5,86.422c-3.883,0-6.917-2.674-6.917-5.833l.485-56.877c0-3.16,3.155-5.712,7.038-5.712l29.608.243c3.883,0,6.917,2.674,6.917,5.833Z" transform="translate(-244.588 -18)" fill="#00bdf2"/>
      <path id="Path_28" data-name="Path 28" d="M280.016,71.37c-1.82-1.335-2.548.607-3.762.607h-.121c-2.791,0-3.155-3.276-4.247-6.8a15.4,15.4,0,0,0-4.732-7.281,5.324,5.324,0,0,0-3.276-1.092c1.092-1.82,1.335-2.306,5.1-9.343,1.456-2.791,2.427-4.368,3.64-7.038A3.386,3.386,0,0,0,272.735,38a3.308,3.308,0,0,0-1.82-1.577A3.741,3.741,0,0,0,269.7,36.3a2.05,2.05,0,0,0-1.213.364,4.284,4.284,0,0,0-1.577,1.7c-1.456,3.519-5.7,10.193-7.766,13.833-.243-2.063-.607-5.218-.971-8.373h0c-.243-2.427-.607-4.854-.849-6.431a.446.446,0,0,0-.121-.364c-.121-1.092-.364-2.306-.485-3.4a3,3,0,0,0-1.213-1.941,2.918,2.918,0,0,0-1.941-.485h-.121a3.628,3.628,0,0,0-2.063,1.213,3.087,3.087,0,0,0-.485,2.063l.364,2.67c1.213,9.1,1.577,11.285,1.941,15.532,0,.485,1.092,11.285,1.092,11.892h0a120.627,120.627,0,0,0,1.092,12.862c.971,3.64,4.611,3.155,5.7,1.577a2.867,2.867,0,0,0,.607-2.67v-.121c-.971-5.582-.728-11.528-.849-12.5a1.613,1.613,0,0,1,2.548-.607,10.359,10.359,0,0,1,3.034,5.339,14.076,14.076,0,0,0,3.4,7.159,7.928,7.928,0,0,0,5.582,1.82,7.2,7.2,0,0,0,4.247-1.335C281.957,74.525,281.229,72.22,280.016,71.37Z" transform="translate(-243.249 -15.082)" fill="#fff"/>
    </g>
  </g>
</svg>
