<svg xmlns="http://www.w3.org/2000/svg" width="109.585" height="84.621" fill="#fff" xmlns:v="https://vecta.io/nano"><path d="M75.646 84.621H33.939a3.12 3.12 0 0 1-2.751-1.545c-.57-.975-.57-2.181 0-3.155s1.622-1.565 2.751-1.545h41.707a3.12 3.12 0 0 1 2.751 1.545c.57.975.57 2.181 0 3.155s-1.622 1.565-2.751 1.545m25.825-78.758a2.28 2.28 0 0 1 2.251 2.251v49.6a2.28 2.28 0 0 1-2.251 2.251H8.114a2.28 2.28 0 0 1-2.251-2.251v-49.6a2.28 2.28 0 0 1 2.251-2.251zm0-5.863H8.114A8.14 8.14 0 0 0 0 8.114v49.6a8.14 8.14 0 0 0 8.114 8.114h93.357a8.14 8.14 0 0 0 8.114-8.114v-49.6A8.14 8.14 0 0 0 101.471 0"/><path d="M54.546 84.375c-1.725 0-3.123-1.398-3.123-3.123V64.227c.03-1.703 1.419-3.067 3.123-3.067s3.092 1.364 3.123 3.067v17.026c0 1.725-1.398 3.123-3.123 3.123"/></svg>