<svg xmlns="http://www.w3.org/2000/svg" xmlns:xlink="http://www.w3.org/1999/xlink" width="464.239" height="292.569" xmlns:v="https://vecta.io/nano"><style><![CDATA[.B{fill:none}.C{fill:#fff}.D{clip-path:url(#S)}.E{fill:#162362}.F{clip-path:url(#I)}]]></style><defs><clipPath id="A"><path d="M0 0h464.239v292.569H0z" class="B"/></clipPath><clipPath id="B"><path d="M0 0h464.238v284.411H0z" class="B"/></clipPath><clipPath id="C"><path d="M0 0h415.387v232.763H0z" class="B"/></clipPath><clipPath id="D"><path d="M145.219.385c18.435,1.543,32.462,20.086,45.845,29.477,17.272,12.12,37.608,6.351,54.475-4.132,6.267-3.9,12.175-9.034,18.908-11.242,10.908-3.577,22.347,1.006,32.833,6.314s21.14,11.5,32.386,11.2c21.945-.569,39.933-25.387,61.823-27.5,15.443-1.491,34.717,8.219,43.764,23.48,4.793,8.086,8.351,17.247,13.769,24.734,7.493,10.354,17.957,16.738,26.95,25.17a56.388,56.388,0,0,1,16.953,49.37c-1.953,13.668-7.728,26.292-15.853,35.255-3.571,3.939-8.513,5.78-11.194,10.6-3.511,6.308-4.374,15.091-6.7,22.162a53.316,53.316,0,0,1-36.487,34.871c-18.294,5-38.358,2.308-56.251-3.716-20.5-6.9-39.968-28-60.343-20.479-7.675,2.832-14.122,9.476-21.1,14.508s-15.506,8.5-22.846,4.424c-11.236-6.234-13.518-25.7-21.8-37.4-9.776-13.816-26.627-14.624-40.355-8.89s-25.8,16.721-39.172,23.757-29.605,9.575-41.464-1.113c-17.184-15.486-16.605-49.3-29.231-71C86.072,123.254,44.284-8.06,145.219.385" transform="translate(-78.138 .005)" class="B"/></clipPath><linearGradient id="E" x1=".04" y1="1.203" x2=".041" y2="1.203"><stop offset="0" stop-color="#e95277"/><stop offset="1" stop-color="#e10a79"/></linearGradient><clipPath id="F"><path d="M0 0h139.195v100.912H0z" class="B"/></clipPath><clipPath id="G"><path d="M339.762,277.623s1.566,70.06-1.044,92.406c-1.044,3.02-119.021,6.644-135.2,1.208-4.7-3.02-1.566-94.822,0-96.634s128.939-3.02,136.247,3.02" transform="translate(-201.033 -273.128)" class="B"/></clipPath><linearGradient id="H" x1="-.267" y1="2.215" x2="-.266" y2="2.215"><stop offset="0" stop-color="#5cc4db"/><stop offset=".313" stop-color="#42b6ca"/><stop offset=".976" stop-color="#0292a0"/><stop offset="1" stop-color="#00919f"/></linearGradient><clipPath id="I"><path d="M0 0h112.319v72.487H0z" class="B"/></clipPath><clipPath id="J"><path d="M326.521 531.109a6.8 6.8 0 0 1 .377.778l-.377-.778" transform="translate(-326.521 -531.109)" class="B"/></clipPath><linearGradient id="K" x1="-173.495" y1="232.607" x2="-172.964" y2="232.607" xlink:href="#H"/><clipPath id="L"><path d="M202.612 470.728c.1-3.257.244-6.679 1.981-9.465s5.64-4.583 8.548-2.964a7.73 7.73 0 0 1 13.816-.648l.377.778a6.83 6.83 0 0 0-.377-.778c-2.7-6.109.427-14.17 6.748-16.841 6.592-2.786 15.233.893 17.6 7.491 2.992-.209 5.551 2.435 6.23 5.275s-.044 5.8-.766 8.629c2.745-3.517 7.673-4.451 11.515-2.184a8.33 8.33 0 0 1 2.519 11.139c8.409-.279 17.123.518 24.531 4.4 3.048 1.6 5.93 3.828 7.283 6.926s.748 7.173-2.078 9.118c3.245.342 6.6.718 9.416 2.323s4.949 4.8 4.211 7.89c-1.12 4.7-7.3 5.925-12.248 6.208l-72.743 4.163c-8.557.489-18.6.355-23.761-6.295-3.554-4.574-3.535-10.8-3.362-16.529q.28-9.317.561-18.634" transform="translate(-201.993 -439.871)" class="B"/></clipPath><linearGradient id="M" x1="-.357" y1="2.686" x2="-.355" y2="2.686" xlink:href="#H"/><clipPath id="N"><path d="M0 0h163.492v49.758H0z" class="B"/></clipPath><clipPath id="O"><path d="M293.924,199.986s0,39.744-2.124,46.454-150.794,1.548-157.962-1.032-.8-44.906-.8-44.906Z" transform="translate(-130.432 -199.986)" class="B"/></clipPath><linearGradient id="P" x1="-.134" y1="4.617" x2="-.133" y2="4.617"><stop offset="0" stop-color="#ffed6b"/><stop offset=".355" stop-color="#fdd451"/><stop offset="1" stop-color="#f99e1b"/></linearGradient><clipPath id="Q"><path d="M792.416,374.723a2.623,2.623,0,0,0-2.728,2.484v13.436a2.622,2.622,0,0,0,2.728,2.484h14.759a2.622,2.622,0,0,0,2.728-2.484V377.207a2.623,2.623,0,0,0-2.728-2.484Z" transform="translate(-789.687 -374.723)" class="B"/></clipPath><linearGradient id="R" x1="-7.831" y1="11.815" x2="-7.821" y2="11.815" xlink:href="#H"/><clipPath id="S"><path d="M0 0h464.238v292.57H0z" class="B"/></clipPath><clipPath id="T"><path d="M2021.389 167.81h0v-.007" transform="translate(-2021.389 -167.805)" class="B"/></clipPath><linearGradient id="U" x1="-47311.793" y1="35431.715" x2="-47288.387" y2="35431.715" xlink:href="#H"/><clipPath id="V"><path d="M2130.225 252.659h0" transform="translate(-2130.225 -252.657)" class="B"/></clipPath><linearGradient id="W" x1="-56658.695" y1="22148.502" x2="-56632.098" y2="22148.502" xlink:href="#H"/><clipPath id="X"><path d="M1937.053 233.7h0" transform="translate(-1937.053 -233.697)" class="B"/></clipPath><linearGradient id="Y" x1="-42090.734" y1="36008.434" x2="-42069.004" y2="36008.434" xlink:href="#H"/><clipPath id="Z"><path d="M2103.865 329.65h0" transform="translate(-2103.865 -329.647)" class="B"/></clipPath><linearGradient id="a" x1="-26433.754" y1="15789.892" x2="-26421.189" y2="15789.892" xlink:href="#H"/><clipPath id="b"><path d="M1904.254,344.137s8.145-9.71-7.693-24.155c-.025.488-3.637,25.677,7.693,24.155" transform="translate(-1895.994 -319.982)" class="B"/></clipPath><linearGradient id="c" x1="-11.621" y1="7.805" x2="-11.615" y2="7.805" xlink:href="#H"/><clipPath id="d"><path d="M1898.808 319.943h0" transform="translate(-1898.808 -319.936)" class="B"/></clipPath><linearGradient id="e" x1="-39986.891" y1="32108.055" x2="-39965.832" y2="32108.055" xlink:href="#H"/><clipPath id="f"><path d="M1829.079 542.912h0" transform="translate(-1829.079 -542.907)" class="B"/></clipPath><linearGradient id="g" x1="-54288.859" y1="35085.027" x2="-54259.176" y2="35085.027" xlink:href="#H"/><clipPath id="h"><path d="M1839.178,558.738s3.975-8.487-10.088-15.8c.075.354,2.28,19.041,10.088,15.8" transform="translate(-1829.09 -542.938)" class="B"/></clipPath><linearGradient id="i" x1="-15.418" y1="8.581" x2="-15.409" y2="8.581" xlink:href="#H"/><clipPath id="j"><path d="M2065.621 415.888h0" transform="translate(-2065.621 -415.885)" class="B"/></clipPath><linearGradient id="k" x1="-44066.785" y1="15790.035" x2="-44045.453" y2="15790.035" xlink:href="#H"/><clipPath id="l"><path d="M1844.334 401.229h0" transform="translate(-1844.334 -401.221)" class="B"/></clipPath><linearGradient id="m" x1="-29280.223" y1="15481.204" x2="-29264.348" y2="15481.204" xlink:href="#H"/><clipPath id="n"><path d="M1856.824,428.11s8-12.446-12.474-26.836c.043.569-.42,30.271,12.474,26.836" transform="translate(-1844.35 -401.274)" class="B"/></clipPath><linearGradient id="o" x1="-9.873" y1="6.471" x2="-9.867" y2="6.471" xlink:href="#H"/><clipPath id="p"><path d="M2046.505 483.881h0" transform="translate(-2046.505 -483.878)" class="B"/></clipPath><linearGradient id="q" x1="-39447.211" y1="12835.029" x2="-39427.938" y2="12835.029" xlink:href="#H"/><clipPath id="r"><path d="M1978.534 585.156h0" transform="translate(-1978.534 -585.154)" class="B"/></clipPath><linearGradient id="s" x1="-55130.012" y1="16593.654" x2="-55102.148" y2="16593.654" xlink:href="#H"/><clipPath id="t"><path d="M0 0h74.282v22.284H0z" class="B"/></clipPath><linearGradient id="u" x1="-3.072" y1="2.413" x2="-3.069" y2="2.413"><stop offset="0" stop-color="#9a6bab"/><stop offset="1" stop-color="#5d2b75"/></linearGradient><clipPath id="v"><path d="M1096.026,1285.716c-.583,0-1.056.74-1.056,1.654v2.511c0,.913.473,1.654,1.056,1.654h89.5c.583,0,1.056-.74,1.056-1.654v-2.511c0-.913-.473-1.654-1.056-1.654Z" transform="translate(-1094.97 -1285.716)" class="B"/></clipPath><linearGradient id="w" x1="-2.396" y1="5.985" x2="-2.394" y2="5.985" xlink:href="#u"/><clipPath id="x"><path d="M1602.288 1152.9l-21.258 2.967a.5.5 0 0 0-.427.566l2.543 18.219a.5.5 0 0 0 .565.427l21.257-2.967a.5.5 0 0 0 .427-.566l-2.543-18.219a.5.5 0 0 0-.5-.432.45.45 0 0 0-.069 0" transform="translate(-1580.599 -1152.897)" class="B"/></clipPath><linearGradient id="y" x1="-12.74" y1="2.765" x2="-12.732" y2="2.765" xlink:href="#E"/><clipPath id="z"><path transform="matrix(.907 -.422 .422 .907 0 1.21)" d="M0 0h2.87v8.61H0z" class="B"/></clipPath><linearGradient id="AA" x1="-52.069" y1="7.173" x2="-52.037" y2="7.173" xlink:href="#P"/><clipPath id="AB"><path d="M0 0h13.532v3.214H0z" class="B"/></clipPath><clipPath id="AC"><path d="M0 0h10.799v2.284H0z" class="B"/></clipPath><clipPath id="AD"><path d="M0 0h10.479v2.788H0z" class="B"/></clipPath><clipPath id="AE"><path d="M0 0h193.719v4.085H0z" class="B"/></clipPath><clipPath id="AF"><path d="M0 0h228.025v147.632H0z" class="B"/></clipPath><clipPath id="AG"><path d="M757.533 508.092h221.109a3.47 3.47 0 0 0 3.458-3.458V363.918a3.47 3.47 0 0 0-3.458-3.458H757.533a3.47 3.47 0 0 0-3.458 3.458v140.716a3.47 3.47 0 0 0 3.458 3.458" transform="translate(-754.075 -360.46)" class="B"/></clipPath><linearGradient id="AH" x1="-.663" y1="1.492" x2="-.662" y2="1.492" xlink:href="#H"/><clipPath id="AI"><path d="M0 0h130.148v133.632H0z" class="B"/></clipPath><clipPath id="AJ"><path d="M1012.173,191.556a.385.385,0,0,1-.12.028c-.75.05-1.508.115-2.254.192a.379.379,0,1,1-.078-.755c.755-.078,1.522-.143,2.281-.194a.379.379,0,0,1,.171.729" transform="translate(-1009.381 -190.827)" class="B"/></clipPath><linearGradient id="AK" x1="-63.223" y1="122.462" x2="-63.16" y2="122.462"><stop offset="0" stop-color="#00919f"/><stop offset=".024" stop-color="#0292a0"/><stop offset=".687" stop-color="#42b6ca"/><stop offset="1" stop-color="#5cc4db"/></linearGradient><clipPath id="AL"><path d="M466.488,821.313c-1.258.691-2.614,1.347-4.032,1.951a.379.379,0,0,0,.294.7h0c1.441-.613,2.82-1.281,4.1-1.984a.379.379,0,1,0-.365-.665" transform="translate(-462.225 -821.265)" class="B"/></clipPath><linearGradient id="AM" x1="-16.36" y1="28.586" x2="-16.324" y2="28.586" xlink:href="#AK"/><clipPath id="AN"><path d="M413.579,716.31a.379.379,0,0,0-.436.312,13.013,13.013,0,0,0-.167,2.67,15.907,15.907,0,0,0,.2,1.951.38.38,0,0,0,.437.312.385.385,0,0,0,.083-.024.379.379,0,0,0,.228-.413,15.2,15.2,0,0,1-.194-1.857,12.26,12.26,0,0,1,.157-2.514.38.38,0,0,0-.312-.436" transform="translate(-412.965 -716.305)" class="B"/></clipPath><linearGradient id="AO" x1="-27.449" y1="28.125" x2="-27.382" y2="28.125" xlink:href="#AK"/><clipPath id="AP"><path d="M421.553,760.336a.379.379,0,1,0-.684.328,18.7,18.7,0,0,0,2.492,3.866.38.38,0,0,0,.437.108.388.388,0,0,0,.1-.059.379.379,0,0,0,.049-.534,17.942,17.942,0,0,1-2.391-3.708" transform="translate(-420.832 -760.118)" class="B"/></clipPath><linearGradient id="AQ" x1="-17.31" y1="25.357" x2="-17.268" y2="25.357" xlink:href="#AK"/><clipPath id="AR"><path d="M538.657,810.693a25.105,25.105,0,0,1-4.3,1.116.379.379,0,1,0,.124.748,25.921,25.921,0,0,0,4.433-1.149l.019-.007a.379.379,0,0,0-.273-.708" transform="translate(-534.038 -810.671)" class="B"/></clipPath><linearGradient id="AS" x1="-19.225" y1="34.362" x2="-19.189" y2="34.362" xlink:href="#AK"/><clipPath id="AT"><path d="M535.5,758.087a16.639,16.639,0,0,1-.726,1.591,21.706,21.706,0,0,1-1.388,2.291.379.379,0,0,0,.623.432,22.483,22.483,0,0,0,1.437-2.372,17.456,17.456,0,0,0,.76-1.664.379.379,0,0,0-.706-.279" transform="translate(-533.315 -757.847)" class="B"/></clipPath><linearGradient id="AU" x1="-22.947" y1="25.297" x2="-22.904" y2="25.297" xlink:href="#AK"/><clipPath id="AV"><path d="M499.509,653.459a.379.379,0,0,0-.149-.515,11.327,11.327,0,0,0-4.436-1.358.379.379,0,1,0-.07.755,10.572,10.572,0,0,1,4.141,1.268.38.38,0,0,0,.515-.15" transform="translate(-494.509 -651.584)" class="B"/></clipPath><linearGradient id="AW" x1="-17.873" y1="41.691" x2="-17.836" y2="41.691" xlink:href="#AK"/><clipPath id="AX"><path d="M380.03,850.265c-1.463.273-2.957.5-4.44.675a.379.379,0,0,0,.089.753c1.5-.177,3.011-.406,4.491-.682a.4.4,0,0,0,.076-.023.379.379,0,0,0-.216-.723" transform="translate(-375.255 -850.258)" class="B"/></clipPath><linearGradient id="AY" x1="-13.807" y1="36.211" x2="-13.77" y2="36.211" xlink:href="#AK"/><clipPath id="AZ"><path d="M505.135,794.888a29.157,29.157,0,0,1-3.408,2.868.379.379,0,0,0,.444.615,29.976,29.976,0,0,0,3.5-2.944.379.379,0,1,0-.533-.539" transform="translate(-501.57 -794.779)" class="B"/></clipPath><linearGradient id="Aa" x1="-18.491" y1="26.253" x2="-18.454" y2="26.253" xlink:href="#AK"/><clipPath id="Ab"><path d="M494.2,815.138a20.475,20.475,0,0,1-4.377-.661.379.379,0,1,0-.193.733,21.2,21.2,0,0,0,4.54.685.371.371,0,0,0,.16-.029.379.379,0,0,0-.131-.729" transform="translate(-489.352 -814.464)" class="B"/></clipPath><linearGradient id="Ac" x1="-18.049" y1="38.523" x2="-18.012" y2="38.523" xlink:href="#AK"/><clipPath id="Ad"><path d="M549.974,718.846a.379.379,0,0,0,.425-.327,19.217,19.217,0,0,0,.046-4.6.379.379,0,1,0-.754.084,18.474,18.474,0,0,1-.045,4.416.379.379,0,0,0,.327.425" transform="translate(-549.644 -713.583)" class="B"/></clipPath><linearGradient id="Ae" x1="-37.031" y1="28.382" x2="-36.963" y2="28.382" xlink:href="#AK"/><clipPath id="Af"><path d="M452.13,656.163a.37.37,0,0,0,.054-.028,15.336,15.336,0,0,1,4.026-1.76.379.379,0,1,0-.2-.732,16.084,16.084,0,0,0-4.226,1.847.379.379,0,0,0,.344.673" transform="translate(-451.606 -653.63)" class="B"/></clipPath><linearGradient id="Ag" x1="-16.063" y1="37.316" x2="-16.028" y2="37.316" xlink:href="#AK"/><clipPath id="Ah"><path d="M535.371,676.563q.051.124.1.248a.379.379,0,0,0,.492.214l.006,0a.38.38,0,0,0,.207-.489q-.052-.131-.106-.261a14.389,14.389,0,0,0-2.235-3.721.379.379,0,0,0-.582.487,13.64,13.64,0,0,1,2.116,3.526" transform="translate(-533.166 -672.415)" class="B"/></clipPath><linearGradient id="Ai" x1="-22.522" y1="28.397" x2="-22.48" y2="28.397" xlink:href="#AK"/><clipPath id="Aj"><path d="M421.595,681.209a.377.377,0,0,0,.19-.173,16.134,16.134,0,0,1,2.568-3.574.379.379,0,0,0-.551-.521,16.91,16.91,0,0,0-2.688,3.742.379.379,0,0,0,.482.527" transform="translate(-421.07 -676.822)" class="B"/></clipPath><linearGradient id="Ak" x1="-16.966" y1="28.819" x2="-16.926" y2="28.819" xlink:href="#AK"/><clipPath id="Al"><path d="M449.353,795.311a22.9,22.9,0,0,0,3.889,2.433.379.379,0,0,0,.336-.68,22.1,22.1,0,0,1-3.76-2.353.379.379,0,0,0-.465.6" transform="translate(-449.207 -794.632)" class="B"/></clipPath><linearGradient id="Am" x1="-16.113" y1="28.151" x2="-16.077" y2="28.151" xlink:href="#AK"/><clipPath id="An"><path d="M424.12 839.033l-4.308 1.269a.38.38 0 0 0-.273.462.38.38 0 0 0 .462.273l4.358-1.285.026-.01a.38.38 0 0 0 .215-.485.38.38 0 0 0-.48-.225" transform="translate(-419.528 -839.014)" class="B"/></clipPath><linearGradient id="Ao" x1="-14.992" y1="31.766" x2="-14.956" y2="31.766" xlink:href="#AK"/><clipPath id="Ap"><path d="M752.648 334.784l-2.6 3.724a.38.38 0 0 0 .111.524.38.38 0 0 0 .524-.111l2.572-3.684a.38.38 0 0 0-.077-.531.38.38 0 0 0-.531.077" transform="translate(-749.987 -334.632)" class="B"/></clipPath><linearGradient id="Aq" x1="-30.39" y1="41.051" x2="-30.349" y2="41.051" xlink:href="#AK"/><clipPath id="Ar"><path d="M780.063 300.414l-3.045 3.368a.38.38 0 0 0 .435.6c.055-.022.104-.056.143-.1l3.014-3.334a.38.38 0 0 0-.011-.536.38.38 0 0 0-.536.01" transform="translate(-776.928 -300.298)" class="B"/></clipPath><linearGradient id="As" x1="-29.949" y1="43.642" x2="-29.911" y2="43.642" xlink:href="#AK"/><clipPath id="At"><path d="M730.055 372.571l-2.093 4.031a.38.38 0 0 0 .371.541.38.38 0 0 0 .313-.214l2.069-3.986a.38.38 0 0 0-.335-.565.38.38 0 0 0-.326.194" transform="translate(-727.925 -372.378)" class="B"/></clipPath><linearGradient id="Au" x1="-31.707" y1="39.044" x2="-31.663" y2="39.044" xlink:href="#AK"/><clipPath id="Av"><path d="M811.712,269.889c-1.17.952-2.325,1.951-3.434,2.971a.379.379,0,1,0,.513.558c1.1-1.009,2.24-2,3.4-2.94a.379.379,0,1,0-.479-.589" transform="translate(-808.156 -269.805)" class="B"/></clipPath><linearGradient id="Aw" x1="-29.935" y1="46.568" x2="-29.898" y2="46.568" xlink:href="#AK"/><clipPath id="Ax"><path d="M926.6 205.643l-4.281 1.516h-.007a.38.38 0 0 0-.179.48.38.38 0 0 0 .462.22l4.235-1.5.031-.011a.38.38 0 0 0 .211-.481.38.38 0 0 0-.472-.23" transform="translate(-922.076 -205.625)" class="B"/></clipPath><linearGradient id="Ay" x1="-32.816" y1="60.916" x2="-32.78" y2="60.916" xlink:href="#AK"/><clipPath id="Az"><path d="M847.035,243.621c-1.277.8-2.545,1.653-3.769,2.532a.379.379,0,0,0,.366.658.355.355,0,0,0,.076-.042c1.212-.869,2.467-1.711,3.731-2.5a.379.379,0,1,0-.4-.643" transform="translate(-843.107 -243.563)" class="B"/></clipPath><linearGradient id="BA" x1="-30.35" y1="50.119" x2="-30.314" y2="50.119" xlink:href="#AK"/><clipPath id="BB"><path d="M712.907 413.262l-1.523 4.28a.38.38 0 0 0 .247.476.38.38 0 0 0 .476-.247l1.505-4.23a.38.38 0 0 0-.213-.493.38.38 0 0 0-.493.214" transform="translate(-711.366 -413.022)" class="B"/></clipPath><linearGradient id="BC" x1="-34.27" y1="37.55" x2="-34.221" y2="37.55" xlink:href="#AK"/><clipPath id="BD"><path d="M969.741,194.894c-1.482.259-2.978.573-4.445.934a.379.379,0,1,0,.181.736c1.451-.356,2.93-.667,4.4-.923a.388.388,0,0,0,.081-.023.379.379,0,0,0-.211-.724" transform="translate(-965.007 -194.889)" class="B"/></clipPath><linearGradient id="BE" x1="-35.041" y1="70.034" x2="-35.005" y2="70.034" xlink:href="#AK"/><clipPath id="BF"><path d="M885.5 222.044l-4.053 2.047a.38.38 0 0 0-.16.496.38.38 0 0 0 .486.187l.036-.017 4.011-2.026a.38.38 0 0 0 .057-.654.38.38 0 0 0-.378-.033" transform="translate(-881.251 -222.007)" class="B"/></clipPath><linearGradient id="BG" x1="-31.283" y1="54.67" x2="-31.247" y2="54.67" xlink:href="#AK"/><clipPath id="BH"><path d="M675.218 634.147a.38.38 0 0 0-.443.3l-.945 4.4a.38.38 0 0 0 .28.458.38.38 0 0 0 .458-.28l.952-4.435a.38.38 0 0 0-.3-.443" transform="translate(-673.819 -634.141)" class="B"/></clipPath><linearGradient id="BI" x1="-36.806" y1="30.113" x2="-36.751" y2="30.113" xlink:href="#AK"/><clipPath id="BJ"><path d="M642.8 720.055l-1.974 3.6-.2.32a.38.38 0 0 0 .467.551c.072-.03.134-.082.175-.149l.2-.327 2.007-3.655a.38.38 0 0 0-.173-.508.38.38 0 0 0-.507.173" transform="translate(-640.566 -719.843)" class="B"/></clipPath><linearGradient id="BK" x1="-27.406" y1="26.634" x2="-27.363" y2="26.634" xlink:href="#AK"/><clipPath id="BL"><path d="M580.3,789.314a31.458,31.458,0,0,1-3.748,2.419.379.379,0,0,0,.327.683l.037-.018a32.137,32.137,0,0,0,3.839-2.477.379.379,0,1,0-.455-.607" transform="translate(-576.358 -789.238)" class="B"/></clipPath><linearGradient id="BM" x1="-20.668" y1="27.961" x2="-20.632" y2="27.961" xlink:href="#AK"/><clipPath id="BN"><path d="M662.031 678.186l-1.467 4.243a.38.38 0 0 0 .216.491.38.38 0 0 0 .491-.216l1.485-4.295a.38.38 0 0 0-.252-.474.38.38 0 0 0-.473.252" transform="translate(-660.538 -677.918)" class="B"/></clipPath><linearGradient id="BO" x1="-32.054" y1="28.088" x2="-32.006" y2="28.088" xlink:href="#AK"/><clipPath id="BP"><path d="M615.5,758.044a36.908,36.908,0,0,1-3,3.309.379.379,0,0,0,.53.543,37.807,37.807,0,0,0,3.066-3.377.379.379,0,0,0-.591-.475" transform="translate(-612.38 -757.902)" class="B"/></clipPath><linearGradient id="BQ" x1="-23.539" y1="26.423" x2="-23.501" y2="26.423" xlink:href="#AK"/><clipPath id="BR"><path d="M683.4 589.606a.38.38 0 0 0-.424.328l-.076.589-.546 3.877a.38.38 0 0 0 .514.42.38.38 0 0 0 .235-.306l.549-3.894.075-.59a.38.38 0 0 0-.328-.424" transform="translate(-682.347 -589.603)" class="B"/></clipPath><linearGradient id="BS" x1="-40.636" y1="32.248" x2="-40.576" y2="32.248" xlink:href="#AK"/><clipPath id="BT"><path d="M701.436 456.234l-.973 4.43a.38.38 0 0 0 .3.444.38.38 0 0 0 .444-.3l.965-4.393a.38.38 0 0 0-.278-.459.38.38 0 0 0-.459.277" transform="translate(-700.456 -455.945)" class="B"/></clipPath><linearGradient id="BU" x1="-38.064" y1="36.555" x2="-38.01" y2="36.555" xlink:href="#AK"/><clipPath id="BV"><path d="M694.518 500.157a.38.38 0 0 0-.433.316l-.633 4.483a.38.38 0 0 0 .521.401.38.38 0 0 0 .231-.301l.631-4.463a.38.38 0 0 0-.317-.433" transform="translate(-693.449 -500.153)" class="B"/></clipPath><linearGradient id="BW" x1="-41.176" y1="35.525" x2="-41.116" y2="35.525" xlink:href="#AK"/><clipPath id="BX"><path d="M689.09,544.842a.379.379,0,0,0-.421.333q-.139,1.2-.276,2.4l-.24,2.093a.379.379,0,1,0,.753.087l.241-2.094q.137-1.2.275-2.394a.379.379,0,0,0-.333-.421" transform="translate(-688.151 -544.84)" class="B"/></clipPath><linearGradient id="BY" x1="-42.272" y1="34.123" x2="-42.21" y2="34.123" xlink:href="#AK"/><clipPath id="BZ"><path d="M302,851.73l12.185.55,2.29-3.337-3.191-.2Z" transform="translate(-302.004 -848.746)" class="B"/></clipPath><linearGradient id="Ba" x1="-7.187" y1="8.695" x2="-7.164" y2="8.695" xlink:href="#u"/><clipPath id="Bb"><path d="M302,836.926l12.833-1.551-1.247-5.145Z" transform="translate(-302.004 -830.23)" class="B"/></clipPath><linearGradient id="Bc" x1="-5.528" y1="9.015" x2="-5.51" y2="9.015"><stop offset="0" stop-color="#e10a79"/><stop offset="1" stop-color="#e95277"/></linearGradient><clipPath id="Bd"><path d="M318.152 867.41l-3.963-3.227-12.189-.55z" transform="translate(-302.004 -863.633)" class="B"/></clipPath><linearGradient id="Be" x1="-6.586" y1="7.685" x2="-6.565" y2="7.685" xlink:href="#Bc"/><clipPath id="Bf"><path d="M201.735 1293.033c1.822 1.594 14.08 3.871 16.167 1.366 2.846-3.416-4.1-5.692-4.1-5.692a4.74 4.74 0 0 0-1.969-.347c-4.336 0-11.645 3.321-10.1 4.673" transform="translate(-201.524 -1288.359)" class="B"/></clipPath><linearGradient id="Bg" x1="-1.9" y1="4.013" x2="-1.89" y2="4.013" xlink:href="#H"/><clipPath id="Bh"><path d="M168.954 1157.451c-.911.228-4.1 19.355-1.366 22.771s12.524-4.326 12.524-8.425-.832-14.4-2.5-15.939a3.54 3.54 0 0 0-2.487-.905c-2.878 0-6.166 2.5-6.166 2.5" transform="translate(-166.505 -1154.952)" class="B"/></clipPath><linearGradient id="Bi" x1="-2.08" y1="2.127" x2="-2.067" y2="2.127" xlink:href="#u"/><clipPath id="Bj"><path d="M105.636,1215.351s-18.6,6.589-13.178,13.178,39.146-3.489,41.471-4.651,5.426-7.752.775-14.341c-.976-1.383-2.823-1.929-5.132-1.929-8.693,0-23.937,7.743-23.937,7.743" transform="translate(-91.467 -1207.608)" class="B"/></clipPath><linearGradient id="Bk" x1="-.266" y1="1.835" x2="-.262" y2="1.835" xlink:href="#u"/><clipPath id="Bl"><path d="M78.037 1039.272s-17.433 17.664-7.654 52.6c5.953 3.926 19.984-3.925 26.362-11.383s-8.929-35.328-10.2-39.254c-.638-1.963-2.764-2.453-4.73-2.453a16.29 16.29 0 0 0-3.773.491" transform="translate(-67.405 -1038.781)" class="B"/></clipPath><linearGradient id="Bm" x1="-.158" y1="1.479" x2="-.153" y2="1.479" xlink:href="#P"/><clipPath id="Bn"><path d="M143.258,1106.4s1.58,13.606,8.183,18.046c4.517,3.037,11.992,2.609,16.775,2.181a23.846,23.846,0,0,1,4.35-.252c1.594.455,3.757,2.163,4.327,2.277.273.055.731-1.521.235-3.1-.536-1.7-2.185-3.406-6.383-3.051-6.831-1.594-11.271-2.163-13.435-5.351s-3.074-11.385-4.326-12.182a10.9,10.9,0,0,0-4.126-.563c-2.729,0-5.734.506-5.6,1.992" transform="translate(-143.253 -1104.409)" class="B"/></clipPath><linearGradient id="Bo" x1="-.829" y1="2.929" x2="-.823" y2="2.929"><stop offset="0" stop-color="#fcd5d0"/><stop offset="1" stop-color="#f8b2ab"/></linearGradient><clipPath id="Bp"><path d="M136.168,1077.526c-4.676,2.566-2.449,14.3.511,15.206s11.443-3.252,11.557-4.845c-.569-4.213-2.79-9.4-4.44-10.7a5.139,5.139,0,0,0-3.1-.837,9.585,9.585,0,0,0-4.531,1.179" transform="translate(-133.472 -1076.347)" class="B"/></clipPath><linearGradient id="Bq" x1="-1.48" y1="4.44" x2="-1.468" y2="4.44" xlink:href="#P"/><clipPath id="Br"><path d="M66.139 952.945c8.108 5.663 15.309 5.118 21.862 1.5 6.575-3.626 4.129-9.989 4.931-10.941 1.429-2.29-.8-2.663-1.755-3.547-1.706-1.728-1.21-4.632-3.9-8.4-3.11-4.349-6.483-4.677-6.483-4.677a29.95 29.95 0 0 0-3-.156c-19.3 0-19.379 20.82-11.652 26.217" transform="translate(-61.337 -926.728)" class="B"/></clipPath><linearGradient id="Bs" x1="-.259" y1="3.35" x2="-.254" y2="3.35" xlink:href="#Bo"/><clipPath id="Bt"><path d="M504.071,1104.45s-3.558,12.034,1.028,17.944c4.392,5.66,13.489,6.664,14.691,7.548s2.491,3.006,2.935,3.281,3.779-5.156-3.256-7.119c-5.263-3.491-7.957-5.4-8.78-8.773s.378-10.6-.428-11.669a8.113,8.113,0,0,0-4.748-2.116,1.308,1.308,0,0,0-1.441.9" transform="translate(-502.755 -1103.546)" class="B"/></clipPath><linearGradient id="Bu" x1="-2.633" y1="2.219" x2="-2.628" y2="2.219" xlink:href="#Bo"/><clipPath id="Bv"><path d="M436.713,1259.979c-1.071.143-10.285,7.879-7.275,9.841s5.747-1.314,5.747-1.314a10.275,10.275,0,0,1,3.464-7.19c-.145-.127-.8-1.347-1.778-1.347a1.211,1.211,0,0,0-.158.011" transform="translate(-428.837 -1259.968)" class="B"/></clipPath><linearGradient id="Bw" x1="-6.715" y1="3.158" x2="-6.699" y2="3.158" xlink:href="#H"/><clipPath id="Bx"><path d="M504.868,1231.864a10.146,10.146,0,0,0,5.6-1.108Z" transform="translate(-504.868 -1230.756)" class="B"/></clipPath><linearGradient id="By" x1="-56.281" y1="8.45" x2="-56.171" y2="8.45" xlink:href="#u"/><clipPath id="Bz"><path d="M481.291,1220.9a10.144,10.144,0,0,1-5.6,1.108Zm-10.612-6.247c.462,5.229,2.709,6.988,5.016,7.354l-6.192,1.226s-.771,5.9.384,6.486c2.726,1.374,29.1,4.06,29.858-3.568s-5.135-10.787-8.231-12.592c0,0-9.063-4.3-15.244-4.3-3.416,0-5.952,1.314-5.591,5.4" transform="translate(-469.251 -1209.252)" class="B"/></clipPath><linearGradient id="CA" x1="-3.689" y1="1.648" x2="-3.681" y2="1.648" xlink:href="#Bc"/><clipPath id="CB"><path d="M396.038,1282.094c-1.1.84-4.813-1.021-6.423,3.693s1.9,2.371,3.961,1.659c3.958-.342,11.455-.93,14.554-.343,1.477-1.583.3-3.29,1.435-5.142-4.046-.184-6.926-.257-8.96-.257-3.174,0-4.29.177-4.566.39" transform="translate(-389.204 -1281.704)" class="B"/></clipPath><linearGradient id="CC" x1="-7.821" y1="1.93" x2="-7.802" y2="1.93" xlink:href="#Bo"/><clipPath id="CD"><path d="M372.483 1284.093c2.24 2.809 5.869.559 5.869.559s1.04-4.483 5.168-6.084c-.464-.611-1.163-.999-1.927-1.07h-.082c-2.1 0-11.238 3.826-9.028 6.6" transform="translate(-372.141 -1277.496)" class="B"/></clipPath><linearGradient id="CE" x1="-5.347" y1="2.514" x2="-5.333" y2="2.514" xlink:href="#H"/><clipPath id="CF"><path d="M474.157,1268.389a10.145,10.145,0,0,0,5.6-1.108Z" transform="translate(-474.157 -1267.281)" class="B"/></clipPath><linearGradient id="CG" x1="-52.92" y1="7.158" x2="-52.81" y2="7.158" xlink:href="#u"/><clipPath id="CH"><path d="M445.029,1205.447c-2.522,4.71-.133,9.648,3.426,10.233l-6.192,1.225s-.771,5.9.384,6.486c2.726,1.374,28.936,4.767,29.7-2.861s-4.975-11.494-8.071-13.3c0,0-6.8-5.875-12.732-5.876a7.01,7.01,0,0,0-6.513,4.091" transform="translate(-442.011 -1201.356)" class="B"/></clipPath><linearGradient id="CI" x1="-3.159" y1="1.663" x2="-3.152" y2="1.663" xlink:href="#E"/><clipPath id="CJ"><path d="M449.38,1061.074s-12.97,14.919-7.882,32.494c4.454,6.556,20.1,3.425,23.924,1.053s-4.422-13.637-3-31.8c.122-1.557-5.864-1.81-9.768-1.81-1.88,0-3.276.058-3.276.058" transform="translate(-440.315 -1061.015)" class="B"/></clipPath><linearGradient id="CK" x1="-1.681" y1="1.945" x2="-1.677" y2="1.945" xlink:href="#H"/><clipPath id="CL"><path d="M409.024 1096.66a.74.74 0 0 0-.655.571c-.057.4.3.7.622.882a7.23 7.23 0 0 0 1.843.735 2.11 2.11 0 0 0 .895.068.99.99 0 0 0 .726-.537c.152-.402.045-.857-.272-1.148-.306-.258-.69-.405-1.09-.418l-1.182-.063a5.38 5.38 0 0 0-.731-.1 1.22 1.22 0 0 0-.156.01" transform="translate(-408.363 -1096.65)" class="B"/></clipPath><linearGradient id="CM" x1="-28.824" y1="16.117" x2="-28.754" y2="16.117" xlink:href="#u"/><clipPath id="CN"><path d="M438.038,957.338c3.7,11.249,13.7,13.054,21.913,9.454,10.466-4.99,8.483-13.042,5.68-18.013-.9-11.938-11.258-12.171-11.258-12.171-13.772.236-19.725,10.421-16.335,20.73" transform="translate(-437.106 -936.607)" class="B"/></clipPath><linearGradient id="CO" x1="-2.202" y1="2.706" x2="-2.196" y2="2.706" xlink:href="#Bo"/><clipPath id="CP"><path d="M457.2,1059.081c-.013,3.739,5.659,3.758,5.659,3.758l-2.8-5.157a2.217,2.217,0,0,1-.731-.263,2.744,2.744,0,0,0-1.017-.266c-.592,0-1.1.406-1.109,1.929" transform="translate(-457.196 -1057.152)" class="B"/></clipPath><linearGradient id="CQ" x1="-14.32" y1="12.727" x2="-14.289" y2="12.727"><stop offset="0" stop-color="#f8b2ab"/><stop offset="1" stop-color="#fcd5d0"/></linearGradient><clipPath id="CR"><path d="M494.192 1121.805s-3.558 12.034 1.028 17.944c4.392 5.66 13.489 6.664 14.691 7.548s2.49 3.006 2.935 3.281 3.779-5.156-3.256-7.119c-5.263-3.491-7.957-5.4-8.78-8.773s.378-10.6-.428-11.669a8.11 8.11 0 0 0-4.748-2.116 1.31 1.31 0 0 0-1.441.9" transform="translate(-492.876 -1120.902)" class="B"/></clipPath><linearGradient id="CS" x1="-2.578" y1="2.113" x2="-2.572" y2="2.113" xlink:href="#Bo"/><clipPath id="CT"><path d="M480.5,1109.106c.369,2.617,7.5,2.638,11.7.849.907-.387,2.226-10.732-3.071-12.09a11.7,11.7,0,0,0-2.871-.41c-3.82,0-6.4,2.743-5.753,11.652" transform="translate(-480.397 -1097.455)" class="B"/></clipPath><linearGradient id="CU" x1="-5.375" y1="4.187" x2="-5.363" y2="4.187" xlink:href="#H"/><clipPath id="CV"><path d="M926.463,1245.353c1.874,4.742,64.869.431,64.869.431a13.12,13.12,0,0,1,1.054-13.419c-3.747.647-63.112-.593-63.112-.593s-9.836,3.018-2.81,13.581" transform="translate(-923.933 -1231.772)" class="B"/></clipPath><linearGradient id="CW" x1="-2.477" y1="2.49" x2="-2.475" y2="2.49" xlink:href="#CQ"/><clipPath id="CX"><path d="M923.109 1225.321c-4.243 0-7.715 3.147-7.715 6.992v3.907c0 3.846 3.472 6.993 7.715 6.993h62.36a1.11 1.11 0 0 0 1.159-1.051v-1.132a1.11 1.11 0 0 0-1.159-1.051h-60.7a5.58 5.58 0 0 1-5.812-5.268v-.889a5.58 5.58 0 0 1 5.812-5.268h60.7a1.11 1.11 0 0 0 1.159-1.051v-1.132a1.11 1.11 0 0 0-1.159-1.051z" transform="translate(-915.394 -1225.321)" class="B"/></clipPath><linearGradient id="CY" x1="-2.576" y1="2.623" x2="-2.573" y2="2.623" xlink:href="#H"/><clipPath id="CZ"><path d="M780.177,1078.111l2.2,22.716,3.56-.379-2.2-22.716Z" transform="translate(-780.177 -1077.732)" class="B"/></clipPath><linearGradient id="Ca" x1="-27.167" y1="3.313" x2="-27.132" y2="3.313" xlink:href="#H"/><clipPath id="Cb"><path d="M781.509,1053.1a.2.2,0,0,1-.211-.09l-.01-.005-.481,2.4-.6,3,1.78-.193,1.781-.193-1.178-2.81-.925-2.207a.206.206,0,0,1-.153.1" transform="translate(-780.204 -1053.002)" class="B"/></clipPath><linearGradient id="Cc" x1="-43.923" y1="15.082" x2="-43.867" y2="15.082" xlink:href="#H"/><clipPath id="Cd"><path d="M740.568,1112.567l8.513,21.281,3.314-1.313-8.513-21.281Z" transform="translate(-740.568 -1111.255)" class="B"/></clipPath><linearGradient id="Ce" x1="-12.553" y1="3.089" x2="-12.536" y2="3.089" xlink:href="#P"/><clipPath id="Cf"><path d="M744.6 1104.138h-.042l.026.031-.012.039.039-.015.034.022v-.04l.033-.026-.04-.009-.014-.037z" transform="translate(-744.556 -1104.104)" class="B"/></clipPath><linearGradient id="Cg" x1="-1261.901" y1="636.787" x2="-1260.206" y2="636.787" xlink:href="#CQ"/><clipPath id="Ch"><path d="M745.764,1106.916l-.008.052.05-.02.051-.02-.042-.031-.042-.032Z" transform="translate(-745.756 -1106.864)" class="B"/></clipPath><linearGradient id="Ci" x1="-1479.771" y1="680.523" x2="-1477.787" y2="680.523" xlink:href="#CQ"/><clipPath id="Cj"><path d="M738.289,1090.724l.267,3.051,1.656-.659,1.657-.66-1.923-2.391-1.924-2.391Z" transform="translate(-738.022 -1087.674)" class="B"/></clipPath><linearGradient id="Ck" x1="-38.457" y1="12.214" x2="-38.405" y2="12.214" xlink:href="#CQ"/><clipPath id="Cl"><path d="M738.065,1088.431l.075.884.479-.188.479-.188-.553-.7-.553-.7Z" transform="translate(-737.99 -1087.547)" class="B"/></clipPath><linearGradient id="Cm" x1="-133.693" y1="42.167" x2="-133.512" y2="42.167" xlink:href="#P"/><clipPath id="Cn"><path d="M810.8,1143.66l3.457.55,5.894-19.531-3.457-.55Z" transform="translate(-810.796 -1124.129)" class="B"/></clipPath><linearGradient id="Co" x1="-17.382" y1="3.347" x2="-17.36" y2="3.347" xlink:href="#E"/><clipPath id="Cp"><path d="M851.4,1116.055l-.033.023.04.006.015.032.022-.031.042,0-.027-.025.011-.034-.039.015-.035-.017Z" transform="translate(-851.363 -1116.02)" class="B"/></clipPath><linearGradient id="Cq" x1="-1438.162" y1="721.5" x2="-1436.473" y2="721.5" xlink:href="#CQ"/><clipPath id="Cr"><path d="M850.659,1118.536l-.038.034.053.008.053.009-.015-.043-.015-.042Z" transform="translate(-850.621 -1118.501)" class="B"/></clipPath><linearGradient id="Cs" x1="-1617.145" y1="800.23" x2="-1615.243" y2="800.23" xlink:href="#CQ"/><clipPath id="Ct"><path d="M843.313 1103.344c-.054 0-.168.02-.243.022a.43.43 0 0 1-.092-.007l-1.258 1.844-1.613 2.364 1.73.273 1.73.272-.117-2.636-.095-2.131h-.043" transform="translate(-840.107 -1103.344)" class="B"/></clipPath><linearGradient id="Cu" x1="-48.662" y1="14.972" x2="-48.604" y2="14.972" xlink:href="#CQ"/><clipPath id="Cv"><path d="M852.474 1103.344c-.054 0-.168.019-.243.022a.44.44 0 0 1-.1-.008l-.1.143-.47.684.5.08.5.081-.029-.764-.009-.236h-.051" transform="translate(-851.566 -1103.343)" class="B"/></clipPath><linearGradient id="Cw" x1="-171.17" y1="71.273" x2="-170.969" y2="71.273" xlink:href="#E"/><clipPath id="Cx"><path d="M753.653,1169.574a2.565,2.565,0,0,0-.687,1.739v25.214a2.645,2.645,0,0,0,2.664,2.608h14.429a2.645,2.645,0,0,0,2.664-2.608v-25.214a2.565,2.565,0,0,0-.687-1.739Z" transform="translate(-752.966 -1169.574)" class="B"/></clipPath><linearGradient id="Cy" x1="-7.64" y1="1.966" x2="-7.63" y2="1.966" xlink:href="#u"/><clipPath id="Cz"><rect width="22.014" height="3.002" rx="1.125" class="B"/></clipPath><linearGradient id="DA" x1="-6.806" y1="19.588" x2="-6.796" y2="19.588"><stop offset="0" stop-color="#5d2b75"/><stop offset="1" stop-color="#9a6bab"/></linearGradient><clipPath id="DB"><path d="M927.921 1158.463c2.755 3.037 3.18 7.527 1.044 11.027 0 0 62.408 3.543 64.264-.354 6.96-8.68-2.784-11.16-2.784-11.16l-62.524.487" transform="translate(-927.921 -1157.976)" class="B"/></clipPath><linearGradient id="DC" x1="-2.574" y1="4.013" x2="-2.571" y2="4.013" xlink:href="#P"/><clipPath id="DD"><path d="M923.78,1152.675c-.634,0-1.149.387-1.149.863v.93c0,.477.515.864,1.149.864h60.13c3.167,0,5.758,1.948,5.758,4.329v.73c0,2.381-2.591,4.329-5.758,4.329H923.78c-.634,0-1.149.387-1.149.863v.93c0,.477.515.864,1.149.864h61.779c4.2,0,7.643-2.586,7.643-5.746v-3.211c0-3.16-3.439-5.746-7.643-5.746Z" transform="translate(-922.631 -1152.675)" class="B"/></clipPath><linearGradient id="DE" x1="-2.621" y1="4.183" x2="-2.618" y2="4.183" xlink:href="#E"/><clipPath id="DF"><path d="M930.814,1092.985c1.764,4.107,61.06.374,61.06.374a10.594,10.594,0,0,1,.992-11.621c-3.527.561-59.406-.513-59.406-.513s-9.258,2.613-2.645,11.76" transform="translate(-928.432 -1081.225)" class="B"/></clipPath><linearGradient id="DG" x1="-2.649" y1="4.778" x2="-2.646" y2="4.778" xlink:href="#Bo"/><clipPath id="DH"><path d="M927.658,1075.638c-3.994,0-7.262,2.725-7.262,6.055v3.384c0,3.331,3.268,6.055,7.262,6.055h58.7a1.013,1.013,0,0,0,1.091-.91v-.98a1.013,1.013,0,0,0-1.091-.91h-57.13c-3.009,0-5.471-2.053-5.471-4.562V1083c0-2.509,2.462-4.562,5.471-4.562h57.13a1.013,1.013,0,0,0,1.091-.91v-.98a1.013,1.013,0,0,0-1.091-.91Z" transform="translate(-920.396 -1075.638)" class="B"/></clipPath><linearGradient id="DI" x1="-2.752" y1="4.966" x2="-2.749" y2="4.966" xlink:href="#u"/></defs><g clip-path="url(#A)"><g clip-path="url(#B)" transform="translate(5.316 1.779)"><g opacity=".1"><g clip-path="url(#C)" transform="translate(15.664 .001)"><g clip-path="url(#D)" transform="translate(0 -.001)"><path fill="url(#E)" d="M-33.854-8.055h451.413v243.209H-33.854z"/></g></g></g><path d="M180.363 55.692s2.866 88.546-.319 95.048-130.26 8.05-139.814 1.238c-1.911-3.1-1.592-91.642.955-98.763s139.177-2.167 139.177 2.477" class="C"/><g opacity=".26"><g clip-path="url(#F)" transform="translate(40.301 53.228)"><g clip-path="url(#G)"><path fill="url(#H)" d="M-2.217-1.545h142.512v105.09H-2.217z"/></g></g></g><g opacity=".75"><g transform="translate(40.493 85.722)" class="F"><g clip-path="url(#J)" transform="translate(24.964 17.781)"><path fill="url(#K)" d="M0 0h.377v.778H0z"/></g><g opacity=".33"><g class="F"><g clip-path="url(#L)"><path fill="url(#M)" d="M-.133-1.846h113.042v74.65H-.133z"/></g></g></g></g></g><g class="C"><path d="M117.402 155.78c-.4 1.161-7.566.774-7.566.774l-.8-105.678 5.973 1.548 2.389 103.355"/><path d="M38.56 48.652c-1.664 2.012-4.994 103.946 0 107.3 17.2 6.036 142.6 2.012 143.709-1.341 2.774-24.813 1.11-102.6 1.11-102.6-7.768-6.706-143.154-5.365-144.819-3.353m5.374 6.533c1.539-1.77 126.726-2.95 133.908 2.95 0 0 1.539 68.447-1.026 90.28-1.026 2.95-116.978 6.491-132.882 1.18-4.618-2.95-1.539-92.64 0-94.41"/></g><g opacity=".16"><g clip-path="url(#N)" transform="translate(26.148 38.975)"><g clip-path="url(#O)" transform="translate(0 -.001)"><path fill="url(#P)" d="M-3.762 0h167.254v53.164H-3.762z"/></g></g></g><path d="M23.182 35.882h170.44a2.36 2.36 0 0 1 2.389 2.323v1.032a2.36 2.36 0 0 1-2.389 2.323H23.182a2.36 2.36 0 0 1-2.389-2.323v-1.032a2.36 2.36 0 0 1 2.389-2.323" class="C"/></g><g clip-path="url(#Q)" transform="translate(158.308 75.121)"><path fill="url(#R)" d="M0 0h20.215v18.404H0z"/></g><g transform="translate(0 -.001)" class="C D"><path d="M172.743 90.629l-1.475-.9-.623 1.749-2.177-5.365 2.1-.851zm-4.847-4.514l-2.177 5.365-.623-1.749-1.475.9 2.177-5.365z"/><path d="M164.236 83.063l.538.536-.177.738.677.344.06.757.75.118.291.7.75-.12.493.577.676-.345.647.4.536-.538.738.177.344-.677.757-.06.118-.75.7-.291-.12-.75.577-.493-.346-.676.4-.648-.538-.536.177-.738-.677-.344-.06-.757-.75-.118-.291-.7-.75.12-.493-.577-.676.346-.648-.4-.536.537-.738-.177-.344.677-.757.06-.118.75-.7.291.12.75-.577.493.346.676zm1.686.211l-.369-.368.272-.445-.237-.464.4-.339-.082-.515.482-.2.081-.515.52-.041.236-.465.507.121.368-.369.445.272.464-.237.339.4.515-.082.2.482.515.081.041.52.465.236-.122.507.369.368-.272.445.237.464-.4.339.082.515-.482.2-.081.515-.52.041-.236.465-.507-.121-.368.369-.445-.272-.464.237-.339-.4-.515.082-.2-.481-.515-.081-.041-.52-.465-.236z"/></g><g transform="translate(405.227 33.64)"><g clip-path="url(#T)"><path transform="matrix(.485649 -.874154 .874154 .485649 -.003 .006)" fill="url(#U)" d="M0 0h.009v.007H0z"/></g></g><g transform="translate(427.045 50.65)"><g clip-path="url(#V)"><path transform="matrix(.485649 -.874154 .874154 .485649 -.001 .002)" fill="url(#W)" d="M0 0h.008v.011H0z"/></g></g><g transform="translate(388.32 46.849)"><g clip-path="url(#X)"><path transform="matrix(.486091 -.873908 .873908 .486091 -.004 .007)" fill="url(#Y)" d="M0 0h.009v.007H0z"/></g></g><g clip-path="url(#Z)" transform="translate(421.761 66.084)"><path d="M-.002.002v-.008L.01 0v.008z" fill="url(#a)"/></g><g transform="translate(380.089 64.147)"><g clip-path="url(#b)"><path transform="matrix(.48661 -.873619 .873619 .48661 -13.985 19.597)" fill="url(#c)" d="M0 0h31.908v29.508H0z"/></g></g><g transform="translate(380.653 64.137)"><g clip-path="url(#d)"><path transform="matrix(.485863 -.874035 .874035 .485863 -.004 .007)" fill="url(#e)" d="M0 0h.01v.007H0z"/></g></g><g transform="translate(366.675 108.836)"><g clip-path="url(#f)"><path transform="matrix(.485 -.874 .874 .485 -.003 .005)" fill="url(#g)" d="M0 0h.007v.005H0z"/></g></g><g transform="translate(366.677 108.842)"><g clip-path="url(#h)"><path transform="matrix(.48661 -.873619 .873619 .48661 -8.094 14.532)" fill="url(#i)" d="M0 0h23.478v21.551H0z"/></g></g><g transform="translate(414.094 83.372)"><g clip-path="url(#j)"><path transform="matrix(.48542 -.874281 .874281 .48542 -.001 .003)" fill="url(#k)" d="M0 0h.009v.013H0z"/></g></g><g clip-path="url(#l)" transform="translate(369.733 80.433)"><path d="M-.005.009L0-.001h.007l-.005.01z" fill="url(#m)"/></g><g transform="translate(369.736 80.443)"><g clip-path="url(#n)"><path transform="matrix(.487 -.874 .874 .487 -13.289 23.103)" fill="url(#o)" d="M0 0h36.612v32.983H0z"/></g></g><g transform="translate(410.262 97.003)"><g clip-path="url(#p)"><path transform="matrix(.486747 -.873543 .873543 .486747 -.001 .002)" fill="url(#q)" d="M0 0h.01v.015H0z"/></g></g><g transform="translate(396.636 117.306)"><g clip-path="url(#r)"><path transform="matrix(.486 -.874 .874 .486 -.001 .002)" fill="url(#s)" d="M0 0h.007v.011H0z"/></g></g><g clip-path="url(#t)" transform="translate(228.174 238.804)"><path fill="url(#u)" d="M0 0h74.282v22.284H0z"/></g><g clip-path="url(#v)" transform="translate(219.508 257.747)"><path fill="url(#w)" d="M0 0h91.614v5.818H0z"/></g><g transform="translate(0 -.001)" class="D"><g class="E"><path d="M146.824 60.617h236.982c4.297.013 7.776 3.492 7.789 7.789l-.014 161.631c0 4.284-3.491 8.857-7.775 8.857H146.824c-4.284 0-7.789-4.7-7.789-8.988v-161.5c.013-4.297 3.492-7.776 7.789-7.789"/><path d="M391.595 234.631c0 3.019-2.175 5.489-4.834 5.489H143.869c-2.658 0-4.834-2.47-4.834-5.489v-4.783h252.56z"/></g><g class="C"><path d="M145.587 67.344h239.457v157.598H145.587z"/><path d="M385.14 67.247H145.489v157.792H385.14zm-.195 157.6H145.684v-157.4h239.262z"/></g></g><g clip-path="url(#x)" transform="translate(316.862 231.121)"><path fill="url(#y)" d="M-.033 0h24.869v22.221H-.033z"/></g><g transform="translate(324.527 227.889)" clip-path="url(#z)"><path fill="url(#AA)" d="M0 0h6.233v9.018H0z"/></g><g transform="translate(0 -.001)"><g class="D"><g opacity=".74" class="C"><g clip-path="url(#AB)" transform="translate(321.788 241.295)"><path d="M.665 1.681L12.655.007a.77.77 0 0 1 .84.661.77.77 0 0 1-.627.865L.878 3.207a.77.77 0 0 1-.869-.656h0a.77.77 0 0 1 .656-.869"/></g></g><g opacity=".74" class="C"><g clip-path="url(#AC)" transform="translate(321.329 238.626)"><path d="M.388 1.385l9.9-1.381a.45.45 0 1 1 .124.894l-9.9 1.381a.45.45 0 0 1-.51-.384h0a.45.45 0 0 1 .385-.51"/></g></g><g opacity=".74" class="C"><g clip-path="url(#AD)" transform="translate(322.291 245.318)"><path d="M.664 1.255L9.602.007a.77.77 0 1 1 .213 1.526L.877 2.781a.77.77 0 0 1-.87-.656.77.77 0 0 1 .656-.87"/></g></g><g opacity=".39" class="E"><g clip-path="url(#AE)" transform="translate(165.66 279.287)"><path d="M2.275 0h189.169c.781-.083 1.542.287 1.959.953s.417 1.512 0 2.178-1.177 1.036-1.959.953H2.275c-.781.083-1.542-.287-1.959-.953S-.1 1.62.316.953 1.494-.083 2.275 0"/></g></g><g opacity=".14"><g clip-path="url(#AF)" transform="translate(151.169 72.262)"><g clip-path="url(#AG)"><path fill="url(#AH)" d="M0 0h228.025v147.632H0z"/></g></g></g><g transform="translate(75.227 38.257)" opacity=".47"><g clip-path="url(#AI)"><g transform="translate(127.123 -.001)"><g clip-path="url(#AJ)"><path transform="matrix(.923465 -.383683 .383683 .923465 -.368 .132)" fill="url(#AK)" d="M0 0h3.199v2.081H0z"/></g></g><g transform="translate(17.435 126.383)"><g clip-path="url(#AL)"><path transform="matrix(.923465 -.383683 .383683 .923465 -1.055 .362)" fill="url(#AM)" d="M0 0h5.639v4.507H0z"/></g></g><g transform="translate(7.56 105.342)"><g clip-path="url(#AN)"><path transform="matrix(.923 -.384 .384 .923 -1.909 .753)" fill="url(#AO)" d="M0 0h2.979v5.298H0z"/></g></g><g transform="translate(9.137 114.125)"><g clip-path="url(#AP)"><path transform="matrix(.923 -.384 .384 .923 -1.696 .626)" fill="url(#AQ)" d="M0 0h4.827v5.549H0z"/></g></g><g transform="translate(31.831 124.259)"><g clip-path="url(#AR)"><path transform="matrix(.923465 -.383683 .383683 .923465 -.726 .242)" fill="url(#AS)" d="M0 0h5.558v3.813H0z"/></g></g><g transform="translate(31.686 113.67)"><g clip-path="url(#AT)"><path transform="matrix(.923 -.384 .384 .923 -1.748 .654)" fill="url(#AU)" d="M0 0h4.622v5.577H0z"/></g></g><g transform="translate(23.907 92.367)"><g clip-path="url(#AV)"><path transform="matrix(.923465 -.383683 .383683 .923465 -.763 .291)" fill="url(#AW)" d="M0 0h5.534v3.907H0z"/></g></g><g transform="translate(0 132.195)"><g clip-path="url(#AX)"><path transform="matrix(.923 -.384 .384 .923 -.55 .188)" fill="url(#AY)" d="M0 0h5.441v3.4H0z"/></g></g><g transform="translate(25.322 121.073)"><g clip-path="url(#AZ)"><path transform="matrix(.923465 -.383683 .383683 .923465 -1.376 .513)" fill="url(#Aa)" d="M0 0h5.405v5.103H0z"/></g></g><g transform="translate(22.873 125.02)"><g clip-path="url(#Ab)"><path transform="matrix(.923465 -.383683 .383683 .923465 -.563 .176)" fill="url(#Ac)" d="M0 0h5.428v3.382H0z"/></g></g><g transform="translate(34.96 104.796)"><g clip-path="url(#Ad)"><path transform="matrix(.923465 -.383683 .383683 .923465 -1.899 .758)" fill="url(#Ae)" d="M0 0h2.948v5.268H0z"/></g></g><g transform="translate(15.306 92.777)"><g clip-path="url(#Af)"><path transform="matrix(.923465 -.383683 .383683 .923465 -.991 .348)" fill="url(#Ag)" d="M0 0h5.613v4.353H0z"/></g></g><g transform="translate(31.656 96.543)"><g clip-path="url(#Ah)"><path transform="matrix(.923465 -.383683 .383683 .923465 -1.723 .651)" fill="url(#Ai)" d="M0 0h4.709v5.572H0z"/></g></g><g transform="translate(9.184 97.427)"><g clip-path="url(#Aj)"><path transform="matrix(.923 -.384 .384 .923 -1.637 .618)" fill="url(#Ak)" d="M0 0h4.929v5.462H0z"/></g></g><g transform="translate(14.825 121.044)"><g clip-path="url(#Al)"><path transform="matrix(.923465 -.383683 .383683 .923465 -1.187 .424)" fill="url(#Am)" d="M0 0h5.559v4.763H0z"/></g></g><g transform="translate(8.875 129.941)"><g clip-path="url(#An)"><path transform="matrix(.923465 -.383683 .383683 .923465 -.792 .266)" fill="url(#Ao)" d="M0 0h5.593v3.945H0z"/></g></g><g transform="translate(75.122 28.828)"><g clip-path="url(#Ap)"><path transform="matrix(.923465 -.383683 .383683 .923465 -1.658 .617)" fill="url(#Aq)" d="M0 0h4.921v5.506H0z"/></g></g><g transform="translate(80.523 21.945)"><g clip-path="url(#Ar)"><path transform="matrix(.923465 -.383683 .383683 .923465 -1.524 .575)" fill="url(#As)" d="M0 0h5.177v5.339H0z"/></g></g><g transform="translate(70.7 36.395)"><g clip-path="url(#At)"><path transform="matrix(.923465 -.383683 .383683 .923465 -1.765 .658)" fill="url(#Au)" d="M0 0h4.575v5.593H0z"/></g></g><g transform="translate(86.783 15.832)"><g clip-path="url(#Av)"><path transform="matrix(.923 -.384 .384 .923 -1.385 .511)" fill="url(#Aw)" d="M0 0h5.392v5.137H0z"/></g></g><g transform="translate(109.621 2.966)"><g clip-path="url(#Ax)"><path transform="matrix(.923465 -.383683 .383683 .923465 -.886 .302)" fill="url(#Ay)" d="M0 0h5.624v4.141H0z"/></g></g><g transform="translate(93.79 10.571)"><g clip-path="url(#Az)"><path transform="matrix(.923465 -.383683 .383683 .923465 -1.244 .443)" fill="url(#BA)" d="M0 0h5.552v4.879H0z"/></g></g><g transform="translate(67.38 44.543)"><g clip-path="url(#BB)"><path transform="matrix(.923465 -.383683 .383683 .923465 -1.843 .697)" fill="url(#BC)" d="M0 0h4.134v5.595H0z"/></g></g><g transform="translate(118.227 .814)"><g clip-path="url(#BD)"><path transform="matrix(.923465 -.383683 .383683 .923465 -.661 .228)" fill="url(#BE)" d="M0 0h5.516v3.633H0z"/></g></g><g transform="translate(101.437 6.25)"><g clip-path="url(#BF)"><path transform="matrix(.923 -.384 .384 .923 -1.08 .372)" fill="url(#BG)" d="M0 0h5.634v4.554H0z"/></g></g><g transform="translate(59.853 88.87)"><g clip-path="url(#BH)"><path transform="matrix(.923 -.384 .384 .923 -1.887 .736)" fill="url(#BI)" d="M0 0h3.644v5.5H0z"/></g></g><g transform="translate(53.187 106.051)"><g clip-path="url(#BJ)"><path transform="matrix(.923465 -.383683 .383683 .923465 -1.746 .649)" fill="url(#BK)" d="M0 0h4.654v5.584H0z"/></g></g><g transform="translate(40.315 119.963)"><g clip-path="url(#BL)"><path transform="matrix(.923465 -.383683 .383683 .923465 -1.223 .436)" fill="url(#BM)" d="M0 0h5.566v4.834H0z"/></g></g><g transform="translate(57.191 97.646)"><g clip-path="url(#BN)"><path transform="matrix(.923465 -.383683 .383683 .923465 -1.851 .703)" fill="url(#BO)" d="M0 0h4.102v5.588H0z"/></g></g><g transform="translate(47.536 113.681)"><g clip-path="url(#BP)"><path transform="matrix(.923465 -.383683 .383683 .923465 -1.519 .568)" fill="url(#BQ)" d="M0 0h5.186v5.346H0z"/></g></g><g transform="translate(61.563 79.942)"><g clip-path="url(#BR)"><path transform="matrix(.923 -.384 .384 .923 -1.892 .751)" fill="url(#BS)" d="M0 0h3.342v5.41H0z"/></g></g><g transform="translate(65.193 53.148)"><g clip-path="url(#BT)"><path transform="matrix(.923465 -.383683 .383683 .923465 -1.881 .729)" fill="url(#BU)" d="M0 0h3.664v5.508H0z"/></g></g><g transform="translate(63.788 62.01)"><g clip-path="url(#BV)"><path transform="matrix(.923465 -.383683 .383683 .923465 -1.89 .747)" fill="url(#BW)" d="M0 0h3.352v5.416H0z"/></g></g><g transform="translate(62.726 70.968)"><g clip-path="url(#BX)"><path transform="matrix(.923465 -.383683 .383683 .923465 -1.89 .755)" fill="url(#BY)" d="M0 0h3.24v5.375H0z"/></g></g></g></g></g></g><g transform="translate(60.543 170.148)"><g clip-path="url(#BZ)"><path transform="matrix(.383683 -.923465 .923465 .383683 -1.252 3.014)" fill="url(#Ba)" d="M0 0h8.818v14.723H0z"/></g></g><g transform="translate(60.543 166.436)"><g clip-path="url(#Bb)"><path transform="matrix(.384 -.923 .923 .384 -2.373 5.711)" fill="url(#Bc)" d="M0 0h11.107v14.42H0z"/></g></g><g transform="translate(60.543 173.132)"><g clip-path="url(#Bd)"><path transform="matrix(.383683 -.923465 .923465 .383683 -1.338 3.221)" fill="url(#Be)" d="M0 0h9.684v16.361H0z"/></g></g><g clip-path="url(#Bf)" transform="translate(40.399 258.277)"><path fill="url(#Bg)" d="M-1.335 0h20.559v8.544H-1.335z"/></g><g clip-path="url(#Bh)" transform="translate(33.379 231.533)"><path fill="url(#Bi)" d="M-1.649 0h15.256v28.685H-1.649z"/></g><g clip-path="url(#Bj)" transform="translate(18.336 242.089)"><path fill="url(#Bk)" d="M-4.434 0H47.89v27.51H-4.434z"/></g><g clip-path="url(#Bl)" transform="translate(13.513 208.244)"><path fill="url(#Bm)" d="M-6.801 0h42.519v57.016H-6.801z"/></g><g clip-path="url(#Bn)" transform="translate(28.718 221.4)"><path fill="url(#Bo)" d="M-.131 0h34.5v24.299h-34.5z"/></g><g clip-path="url(#Bp)" transform="translate(26.757 215.775)"><path fill="url(#Bq)" d="M-1.98 0h16.745v17.296H-1.98z"/></g><g clip-path="url(#Br)" transform="translate(12.296 185.781)"><path fill="url(#Bs)" d="M-2.925 0h36.163v31.88H-2.925z"/></g><g transform="translate(0 -.001)" class="D E"><path d="M7.606 194.828a15.19 15.19 0 0 1 7.592-8.294 30.72 30.72 0 0 1 6.309-2.66l5.462-1.587c1.944-.685 3.8-1.433 5.907-1.278 2.262.166 4.578 1.557 5.153 3.752.309 1.177-.12 2.7-1.3 3.019-.881.236-1.777-.292-2.688-.348-2.434-.149-3.728 3.194-4.641 4.8-2.814 4.961-.4 10.9-3.232 13.764-2.966-2.318-6.715-1.183-2.522 4.835 3.278 4.706 1.877 4.958 1.877 4.958s-18.98.019-18.537-17.7a10.1 10.1 0 0 1 .617-3.267"/></g><g transform="translate(100.787 221.227)"><g clip-path="url(#Bt)"><path transform="matrix(.255598 -.966783 .966783 .255598 -9.644 27.995)" fill="url(#Bu)" d="M0 0h35.6v32.783H0z"/></g></g><g transform="translate(85.969 252.585)"><g clip-path="url(#Bv)"><path transform="matrix(.051499 -.998673 .998673 .051499 -3.016 11.783)" fill="url(#Bw)" d="M0 0h12.428v12.813H0z"/></g></g><g transform="translate(101.211 246.729)"><g clip-path="url(#Bx)"><path transform="matrix(.051499 -.998673 .998673 .051499 -.08 1.542)" fill="url(#By)" d="M0 0h1.832v5.668H0z"/></g></g><g transform="translate(94.07 242.418)"><g clip-path="url(#Bz)"><path transform="matrix(.051499 -.998673 .998673 .051499 -1.78 24.459)" fill="url(#CA)" d="M0 0h26.128v32.996H0z"/></g></g><g transform="translate(78.024 256.943)"><g clip-path="url(#CB)"><path transform="matrix(.051499 -.998673 .998673 .051499 -1.685 8.773)" fill="url(#CC)" d="M0 0h10.53v22.06H0z"/></g></g><g transform="translate(74.603 256.099)"><g clip-path="url(#CD)"><path transform="matrix(.362828 -.931856 .931856 .362828 -5.048 8.168)" fill="url(#CE)" d="M0 0h13.572v15.757H0z"/></g></g><g transform="translate(95.054 254.051)"><g clip-path="url(#CF)"><path transform="matrix(.051499 -.998673 .998673 .051499 -.08 1.542)" fill="url(#CG)" d="M0 0h1.832v5.668H0z"/></g></g><g transform="translate(88.61 240.835)"><g clip-path="url(#CH)"><path transform="matrix(.051 -.999 .999 .051 -1.898 26.732)" fill="url(#CI)" d="M0 0h28.395v32.954H0z"/></g></g><g transform="translate(88.27 212.701)"><g clip-path="url(#CJ)"><path transform="matrix(.256 -.967 .967 .256 -13.569 36.553)" fill="url(#CK)" d="M0 0h46.201v41.738H0z"/></g></g><g transform="translate(0 -.001)" fill="#111a50" class="D"><path d="M89.853 208.135c-.278-.819-.765-1.552-1.413-2.125-.33-.263-.752-.381-1.17-.328s-.798.272-1.052.607c-.554.892.034 2.2-.515 3.094-.5.812-1.738.937-2.02 1.858-.211.689.267 1.429.1 2.13-.207.85-1.186 1.136-1.779 1.747a2.25 2.25 0 0 0 .623 3.443c-.643.44-.887 1.273-.582 1.99.308.669.968 1.107 1.705 1.13a3.38 3.38 0 0 0 2.012-.671c.677-.428 1.198-1.063 1.486-1.81a2.19 2.19 0 0 0-.406-2.239c1.008.316 2.103-.087 2.665-.981.574-.934.531-2.121-.11-3.01l2.153-.985-1.695-3.849"/><path d="M84.521 219.836c-.599-.189-1.252-.101-1.779.241a4.11 4.11 0 0 0-1.32 1.393c-.439.634-.651 1.399-.6 2.169a4.21 4.21 0 0 0 .692 1.614l1.695 2.781a5.06 5.06 0 0 0 2.566-2.6c.515-1.184.596-2.512.228-3.75a2.72 2.72 0 0 0-1.481-1.848"/></g><g transform="translate(81.864 219.845)"><g clip-path="url(#CL)"><path transform="matrix(.13 -.992 .992 .13 -.35 2.283)" fill="url(#CM)" d="M0 0h2.864v4.582H0z"/></g></g><g transform="translate(87.627 187.761)"><g clip-path="url(#CN)"><path transform="matrix(.129903 -.991527 .991527 .129903 -6.81 33.214)" fill="url(#CO)" d="M0 0h38.145v39.855H0z"/></g></g><g transform="translate(0 -.001)" class="D E"><path d="M109.852 186.878c-2.592-.59-5.276-.658-7.895-.2-4.115.602-7.986 2.319-11.193 4.966a15.47 15.47 0 0 0-5.209 11.855c.438 9.944 6.367 15.048 9.688 13.862-1.231-.252-1.163-.589-2.093-1.433s-1.813-2.905-.938-3.807c.774-.8 1.726-.242 2.594.452s.981.594 1.66.334c-2.113-1.986-3.141-3.556-2.565-7.134 1.771.011 6.161-1.521 8.967-3.19 3.746-2.228 7.65-6.166 7.329-9.343 3.91 1.5 5.446 3.658 6.168 6.523 2-3.039.649-6.086-.575-8.341a9.27 9.27 0 0 0-5.937-4.536"/></g><g transform="translate(91.654 211.927)"><g clip-path="url(#CP)"><path transform="matrix(.129903 -.991527 .991527 .129903 -.745 5.59)" fill="url(#CQ)" d="M0 0h6.375v6.363H0z"/></g></g><g transform="translate(98.807 224.707)"><g clip-path="url(#CR)"><path transform="matrix(.255598 -.966783 .966783 .255598 -9.644 27.995)" fill="url(#CS)" d="M0 0h35.6v32.783H0z"/></g></g><g transform="translate(96.305 220.006)"><g clip-path="url(#CT)"><path transform="matrix(.255598 -.966783 .966783 .255598 -4.082 13.356)" fill="url(#CU)" d="M0 0h17.54v17.741H0z"/></g></g><g clip-path="url(#CV)" transform="translate(185.22 246.933)"><path fill="url(#CW)" d="M-4.496 0h72.948v18.324H-4.496z"/></g><g transform="translate(0 -.001)" class="C D"><path d="M186.601 256.904h63.862v.324h-63.862zm-1.071-4.204h42.634v.647H185.53zm.892 2.264h55.834v.485h-55.834z"/></g><g transform="translate(183.509 245.639)"><g clip-path="url(#CX)"><path fill="url(#CY)" d="M0 0h71.235v17.893H0z"/></g></g><g transform="translate(156.402 216.052)"><g clip-path="url(#CZ)"><path fill="url(#Ca)" d="M0 0h5.757v23.095H0z"/></g></g><g clip-path="url(#Cb)" transform="translate(156.407 211.095)"><path fill="url(#Cc)" d="M0 0h3.561v5.402H0z"/></g><g transform="translate(0 -.001)" class="D E"><path d="M158.987 229.387l.731-.067c.955-.089 1.658-.935 1.569-1.89l-.846-8.906a1.74 1.74 0 0 0-1.883-1.562l-.731.067c-.955.089-1.658.935-1.569 1.89l.845 8.906a1.74 1.74 0 0 0 1.883 1.563m-1.519-18.331c.007.117.107.207.224.2s.207-.107.2-.224-.037-.587-.293-.552c-.3.041-.137.461-.13.576"/></g><g clip-path="url(#Cd)" transform="translate(148.461 222.773)"><path fill="url(#Ce)" d="M0 0h11.827v22.594H0z"/></g><g clip-path="url(#Cf)" transform="translate(149.261 221.339)"><path fill="url(#Cg)" d="M0 0h.118v.112H0z"/></g><g transform="translate(149.501 221.892)"><g clip-path="url(#Ch)"><path fill="url(#Ci)" d="M0 0h.101v.104H0z"/></g></g><g transform="translate(147.951 218.045)"><g clip-path="url(#Cj)"><path fill="url(#Ck)" d="M0 0h3.847v6.101H0z"/></g></g><g transform="translate(147.944 218.02)"><g clip-path="url(#Cl)"><path fill="url(#Cm)" d="M0 0h1.107v1.768H0z"/></g></g><g clip-path="url(#Cn)" transform="translate(162.54 225.354)"><path fill="url(#Co)" d="M0 0h9.351v20.081H0z"/></g><g transform="translate(170.672 223.728)"><g clip-path="url(#Cp)"><path fill="url(#Cq)" d="M0 0h.119v.095H0z"/></g></g><g clip-path="url(#Cr)" transform="translate(170.524 224.225)"><path fill="url(#Cs)" d="M0 0h.105v.085H0z"/></g><g clip-path="url(#Ct)" transform="translate(168.416 221.187)"><path fill="url(#Cu)" d="M0 0h3.461v4.768H0z"/></g><g transform="translate(170.713 221.187)"><g clip-path="url(#Cv)"><path fill="url(#Cw)" d="M0 0h.997v1.002H0z"/></g></g><g clip-path="url(#Cx)" transform="translate(150.947 234.464)"><path fill="url(#Cy)" d="M0 0h19.756v29.561H0z"/></g><g clip-path="url(#Cz)" transform="translate(149.818 233.769)"><path fill="url(#DA)" d="M0 0h22.014v3.002H0z"/></g><g clip-path="url(#DB)" transform="translate(186.02 232.139)"><path fill="url(#DC)" d="M0 0h72.268v15.057H0z"/></g><g transform="translate(0 -.001)" class="C D"><path d="M189.201 240.332h63.266v.266h-63.266zm22.09-3.454h42.236v.531h-42.236zm-13.961 1.86h55.314v.399H197.33z"/></g><g clip-path="url(#DD)" transform="translate(184.959 231.076)"><path fill="url(#DE)" d="M0 0h70.571v14.702H0z"/></g><g clip-path="url(#DF)" transform="translate(186.122 216.753)"><path fill="url(#DG)" d="M-4.232 0h68.664v15.868H-4.232z"/></g><g transform="translate(0 -.001)" class="C D"><path d="M187.422 225.387h60.111v.28h-60.111zm-1.008-3.64h40.13v.56h-40.13zm.84 1.961h52.555v.42h-52.555z"/></g><g clip-path="url(#DH)" transform="translate(184.511 215.633)"><path fill="url(#DI)" d="M0 0h67.051v15.494H0z"/></g><g transform="translate(0 -.001)" class="D E"><path d="M2.181 263.582h389.586a2.64 2.64 0 0 1 0 5.2H2.181a2.64 2.64 0 0 1 0-5.2"/></g></g></svg>