<svg xmlns="http://www.w3.org/2000/svg" width="122.973" height="80" xmlns:v="https://vecta.io/nano"><defs><clipPath id="A"><path fill="#fff" stroke="#fff" stroke-width="1" d="M0 0h122.973v80H0z"/></clipPath></defs><g clip-path="url(#A)" fill="#fff" stroke="#fff"><path d="M110.057 65.824H12.914c-1.077.014-1.963-.847-1.978-1.924V6.245c.047-3.49 2.91-6.283 6.4-6.245h88.3c3.49-.038 6.353 2.755 6.4 6.245V63.9c-.014 1.078-.898 1.941-1.976 1.928m-95.167-3.856h93.191V6.245c-.018-1.335-1.113-2.403-2.448-2.389h-88.3c-1.335-.014-2.43 1.054-2.448 2.389z"/><path d="M121 80H1.976a1.98 1.98 0 0 1-1.768-1.067 1.89 1.89 0 0 1 .189-2.02l10.939-14.177a1.99 1.99 0 0 1 1.579-.768h97.143a1.99 1.99 0 0 1 1.579.768l10.939 14.177a1.89 1.89 0 0 1 .189 2.02A1.98 1.98 0 0 1 121 80M5.938 76.147h111.1l-7.963-10.32H13.9zM86.45 35.811c-6.002-.147-10.762-5.105-10.665-11.108s5.017-10.803 11.02-10.755 10.845 4.93 10.845 10.933c-.083 6.107-5.092 10.996-11.2 10.93m0-18a7.08 7.08 0 0 0-6.9 7.19 7.08 7.08 0 0 0 7.133 6.959 7.08 7.08 0 0 0 7.018-7.076c-.054-3.954-3.297-7.118-7.251-7.074"/><path d="M99.695 49.57c-1.078.013-1.962-.85-1.976-1.928-.152-6.114-5.153-10.991-11.269-10.991s-11.116 4.877-11.269 10.991a1.98 1.98 0 0 1-1.976 1.914 1.98 1.98 0 0 1-1.976-1.914 15.23 15.23 0 0 1 30.442 0 1.95 1.95 0 0 1-1.976 1.928M38.613 35.811c-6.002-.147-10.762-5.105-10.665-11.108s5.017-10.803 11.02-10.755 10.844 4.929 10.844 10.932c-.083 6.107-5.092 10.996-11.2 10.93m0-18a7.08 7.08 0 0 0-6.9 7.19 7.08 7.08 0 0 0 7.133 6.959 7.08 7.08 0 0 0 7.018-7.076c-.054-3.954-3.297-7.118-7.251-7.074"/><path d="M51.854 49.57a1.95 1.95 0 0 1-1.976-1.928c-.152-6.114-5.153-10.991-11.269-10.991S27.493 41.528 27.34 47.642a1.98 1.98 0 0 1-1.976 1.914 1.98 1.98 0 0 1-1.976-1.914 15.23 15.23 0 0 1 30.442 0c-.014 1.078-.898 1.941-1.976 1.928m9.632 16.253c-1.078.013-1.962-.85-1.976-1.928V1.976A1.98 1.98 0 0 1 61.486.062a1.98 1.98 0 0 1 1.976 1.914v61.919c-.014 1.078-.898 1.941-1.976 1.928"/></g></svg>