<svg xmlns="http://www.w3.org/2000/svg" width="67.296" height="87.67" xmlns:v="https://vecta.io/nano"><path d="M20.088 5l-1.033 1.036-5.622 5.628-8.427 8.44-.005 62.567h57.296V5H20.088m-2.087-5h0zm0 0H62.99c2.379 0 4.307 1.764 4.307 3.94v79.79c0 2.176-1.928 3.94-4.307 3.94H4.308c-2.379 0-4.307-1.764-4.307-3.94l.005-65.677C.028 17.976 17.996.047 18.001 0z" fill="#fff"/><path d="M3.327 18.556h12.9a2.29 2.29 0 0 0 2.264-2.043V3.631m-2.358 30.905h35.029M16.133 48.707h35.029m-35.029 14.17h35.029" fill="none" stroke="#fff" stroke-linecap="round" stroke-width="5"/></svg>