<svg xmlns="http://www.w3.org/2000/svg" width="59.173" height="53.735" viewBox="0 0 59.173 53.735">
  <g id="School_Icon_-_Grey" data-name="School Icon - Grey" transform="translate(0.153 1.15)">
    <path id="Path_114" data-name="Path 114" d="M1998.043,211.381c3.26,1.609,6.527,3.207,9.78,4.83q9.285,4.634,18.554,9.3a5.624,5.624,0,0,1,.974.8v.919a1.349,1.349,0,0,1-2.016.473q-13.4-6.7-26.805-13.4a1.15,1.15,0,0,0-1.176-.016q-13.42,6.727-26.851,13.431a1.475,1.475,0,0,1-1.531.025,1.286,1.286,0,0,1,.372-2.219c2.018-.968,4.007-2,6.01-3q10.856-5.417,21.714-10.832c.211-.106.421-.216.631-.324Z" transform="translate(-1968.48 -212.381)" fill="#a7a9ab" stroke="#a7a9ab" stroke-width="0.3"/>
    <path id="Path_115" data-name="Path 115" d="M1988.494,364.138c0-4.69.028-9.381-.022-14.07a2.259,2.259,0,0,1,1.258-2.184,24.674,24.674,0,0,1,7.419-2.657,29.319,29.319,0,0,1,7.662-.42,23.588,23.588,0,0,1,9.171,2.262,1.274,1.274,0,0,1,.255.118c1,.82,1.9.49,2.925-.056a22.076,22.076,0,0,1,6.687-2.031,30.491,30.491,0,0,1,6.941-.291,24.632,24.632,0,0,1,9.627,2.494c.386.191.763.4,1.139.613a2.229,2.229,0,0,1,1.2,2.154q-.042,14.185-.007,28.371c0,1.342-.55,1.715-1.732,1.717q-9.738.02-19.476,0H2009.6c-6.435.013-12.869,0-19.3.014-1.244,0-1.826-.593-1.817-1.789C1988.516,373.633,1988.494,368.886,1988.494,364.138Zm25.975,8.978V363.8q0-6.6.007-13.206c0-.356-.052-.616-.411-.774-.565-.249-1.113-.538-1.675-.8a21.215,21.215,0,0,0-7.733-1.81,27.842,27.842,0,0,0-6.479.3,23.187,23.187,0,0,0-6.848,2.271.744.744,0,0,0-.427.772q.01,11.053.007,22.106c0,.157.025.315.035.427A28.738,28.738,0,0,1,2014.469,373.117Zm25.836-.019a2.333,2.333,0,0,0,.022-.245q0-11.2-.016-22.393a.9.9,0,0,0-.405-.641,21.551,21.551,0,0,0-9.352-2.6,26.528,26.528,0,0,0-8.3.656,24.012,24.012,0,0,0-4.83,1.8,1.052,1.052,0,0,0-.673,1.082c.024,7.235.016,14.47.016,21.7v.657A28.716,28.716,0,0,1,2040.305,373.1Zm-49.4,4.539h19.669c.635,0,9.509-.005,10.226,0q9.423.01,18.846,0h.68a9.406,9.406,0,0,1,.006-1.006.856.856,0,0,0-.532-.947,20.4,20.4,0,0,0-6.334-2.2,28.146,28.146,0,0,0-7.069-.352,23.76,23.76,0,0,0-6.263,1.287,13.723,13.723,0,0,0-3.694,1.868,1.509,1.509,0,0,1-1.666-.022,14.013,14.013,0,0,0-4.545-2.16,23.849,23.849,0,0,0-9.687-.944c-1.49.177-2.98.389-4.447.7a16.2,16.2,0,0,0-4.878,1.957.736.736,0,0,0-.3.5C1990.879,376.728,1990.908,377.148,1990.908,377.637Z" transform="translate(-1986.171 -327.735)" fill="#a7a9ab" stroke="#a7a9ab" stroke-width="0.3"/>
  </g>
</svg>
