<svg xmlns="http://www.w3.org/2000/svg" width="249.047" height="323.389" viewBox="0 0 249.047 323.389">
  <g id="open-padlock" opacity="0.2">
    <g id="Group_34" data-name="Group 34" transform="translate(0)">
      <path id="Path_57" data-name="Path 57" d="M102.758,323.389H259.62c25.462,0,46.092-20.072,46.092-45.535V176.005a45.087,45.087,0,0,0-33.454-44.048V83.077C272.259,37.543,236.017,0,190.483,0H171.9C126.363,0,89.191,37.357,89.191,82.892a11.184,11.184,0,0,0,11.151,11.151,11.345,11.345,0,0,0,11.151-11.337,60.521,60.521,0,0,1,60.4-60.4h18.585c33.268,0,59.474,27.506,59.474,60.775V130.1h-147.2a46.084,46.084,0,0,0-46.092,46.092V278.04C56.667,303.316,77.3,323.389,102.758,323.389ZM283.41,277.3a23.717,23.717,0,0,1-23.79,23.79H102.758a23.717,23.717,0,0,1-23.79-23.79V176.191a23.717,23.717,0,0,1,23.79-23.79H259.62a23.717,23.717,0,0,1,23.79,23.79V277.3Z" transform="translate(-56.666)" fill="#00bdf2"/>
      <path id="Path_58" data-name="Path 58" d="M234.984,386.282a11.184,11.184,0,0,0,11.151-11.151V339.818a11.151,11.151,0,0,0-22.3,0v35.312A11.184,11.184,0,0,0,234.984,386.282Z" transform="translate(-114.178 -113.074)" fill="#00bdf2"/>
    </g>
  </g>
</svg>
