<svg id="magnifying-glass-zoom-in" xmlns="http://www.w3.org/2000/svg" width="18.61" height="19.181" viewBox="0 0 18.61 19.181">
  <g id="Group_60" data-name="Group 60" transform="translate(0)">
    <path id="Path_112" data-name="Path 112" d="M14.649,14.917a7.422,7.422,0,0,0,4.466-1.485l5.546,5.546a.666.666,0,0,0,.472.2.648.648,0,0,0,.472-.2.686.686,0,0,0,0-.956l-5.49-5.5a7.452,7.452,0,1,0-5.467,2.4Zm0-13.567A6.109,6.109,0,1,1,8.54,7.459,6.114,6.114,0,0,1,14.649,1.35Z" transform="translate(-7.19)" fill="#fff"/>
    <path id="Path_113" data-name="Path 113" d="M109.582,103.612h2.137v2.137a.675.675,0,0,0,1.35,0v-2.137h2.137a.675.675,0,0,0,0-1.35h-2.137v-2.137a.675.675,0,0,0-1.35,0v2.137h-2.137a.675.675,0,0,0,0,1.35Z" transform="translate(-104.868 -95.501)" fill="#fff"/>
  </g>
</svg>
