<svg xmlns="http://www.w3.org/2000/svg" width="36.041" height="39.147" viewBox="0 0 36.041 39.147">
  <g id="Assessment_Records" data-name="Assessment Records" transform="translate(-519.044 -917.656)">
    <path id="Path_167" data-name="Path 167" d="M546.413,982.916a.824.824,0,1,0,0-1.649h-5.167a.824.824,0,0,0-.824.824v5.13a.824.824,0,0,0,.824.825h5.167a.824.824,0,1,0,0-1.649h-4.342v-3.481Z" transform="translate(-15.641 -46.907)" fill="#00bdf2" stroke="#00bdf2" stroke-width="0.5"/>
    <path id="Path_168" data-name="Path 168" d="M539.694,979.971a.824.824,0,0,0-.824.824v1.616H521.952a.826.826,0,0,0-.312.061,3.793,3.793,0,0,0-.7.373V965.99a2.115,2.115,0,0,1,1.185-1.9h8.644a.824.824,0,1,0,0-1.649h-8.819a.824.824,0,0,0-.312.061,3.76,3.76,0,0,0-2.346,3.492v19.976a3.759,3.759,0,0,0,2.346,3.492.818.818,0,0,0,.312.062h17.742a.825.825,0,0,0,.825-.825v-7.9A.824.824,0,0,0,539.694,979.971Zm-.824,7.9H522.128a2.124,2.124,0,0,1,0-3.81H538.87Z" transform="translate(0 -32.966)" fill="#00bdf2" stroke="#00bdf2" stroke-width="0.5"/>
    <path id="Path_169" data-name="Path 169" d="M594.826,917.906H577.084a.824.824,0,0,0-.312.061,3.76,3.76,0,0,0-2.346,3.492v19.975a3.76,3.76,0,0,0,2.346,3.492.82.82,0,0,0,.312.062h17.742a.824.824,0,0,0,.824-.825V918.73A.824.824,0,0,0,594.826,917.906ZM594,943.34H577.26a2.124,2.124,0,0,1,0-3.81H594Zm0-5.459H577.084a.828.828,0,0,0-.312.061,3.853,3.853,0,0,0-.7.373V921.46a2.116,2.116,0,0,1,1.185-1.905H594Z" transform="translate(-40.815 0)" fill="#00bdf2" stroke="#00bdf2" stroke-width="0.5"/>
    <path id="Path_170" data-name="Path 170" d="M596.378,943.516h8.6a.824.824,0,0,0,.825-.824v-5.13a.824.824,0,0,0-.825-.824h-8.6a.825.825,0,0,0-.825.824v5.13A.824.824,0,0,0,596.378,943.516Zm.824-5.13h6.954v3.481H597.2Z" transform="translate(-56.456 -13.941)" fill="#00bdf2" stroke="#00bdf2" stroke-width="0.5"/>
  </g>
</svg>
