<svg xmlns="http://www.w3.org/2000/svg" width="55.836" height="48.483" viewBox="0 0 55.836 48.483">
  <g id="_Follow_Up_Activity" data-name=" Follow Up Activity" transform="translate(-2964.612 -1618.488)">
    <g id="Group_314" data-name="Group 314" transform="translate(2987.405 1619.69)">
      <circle id="Ellipse_20" data-name="Ellipse 20" cx="4.384" cy="4.384" r="4.384" transform="matrix(0.228, -0.974, 0.974, 0.228, 1.219, 8.535)" fill="none" stroke="#00bdf2" stroke-linecap="round" stroke-linejoin="round" stroke-width="2"/>
      <path id="Path_184" data-name="Path 184" d="M3223.336,1763.5a6.481,6.481,0,0,1,2.86-5.379" transform="translate(-3223.336 -1746.856)" fill="none" stroke="#00bdf2" stroke-linecap="round" stroke-linejoin="round" stroke-width="2"/>
      <path id="Path_185" data-name="Path 185" d="M3349.39,1758.124a6.48,6.48,0,0,1,2.86,5.379" transform="translate(-3339.276 -1746.856)" fill="none" stroke="#00bdf2" stroke-linecap="round" stroke-linejoin="round" stroke-width="2"/>
    </g>
    <g id="Group_315" data-name="Group 315" transform="translate(2965.612 1649.324)">
      <circle id="Ellipse_21" data-name="Ellipse 21" cx="4.384" cy="4.384" r="4.384" transform="matrix(0.228, -0.974, 0.974, 0.228, 1.219, 8.535)" fill="none" stroke="#00bdf2" stroke-linecap="round" stroke-linejoin="round" stroke-width="2"/>
      <path id="Path_186" data-name="Path 186" d="M2965.612,2160.567a6.48,6.48,0,0,1,2.86-5.379" transform="translate(-2965.612 -2143.92)" fill="none" stroke="#00bdf2" stroke-linecap="round" stroke-linejoin="round" stroke-width="2"/>
      <path id="Path_187" data-name="Path 187" d="M3091.666,2155.187a6.48,6.48,0,0,1,2.86,5.379" transform="translate(-3081.552 -2143.919)" fill="none" stroke="#00bdf2" stroke-linecap="round" stroke-linejoin="round" stroke-width="2"/>
    </g>
    <g id="Group_316" data-name="Group 316" transform="translate(3006.473 1649.324)">
      <circle id="Ellipse_22" data-name="Ellipse 22" cx="4.384" cy="4.384" r="4.384" transform="matrix(0.228, -0.974, 0.974, 0.228, 1.219, 8.535)" fill="none" stroke="#00bdf2" stroke-linecap="round" stroke-linejoin="round" stroke-width="2"/>
      <path id="Path_188" data-name="Path 188" d="M3474.848,2160.567a6.48,6.48,0,0,1,2.86-5.379" transform="translate(-3474.848 -2143.92)" fill="none" stroke="#00bdf2" stroke-linecap="round" stroke-linejoin="round" stroke-width="2"/>
      <path id="Path_189" data-name="Path 189" d="M3600.9,2155.187a6.481,6.481,0,0,1,2.861,5.379" transform="translate(-3590.787 -2143.919)" fill="none" stroke="#00bdf2" stroke-linecap="round" stroke-linejoin="round" stroke-width="2"/>
    </g>
    <path id="Path_190" data-name="Path 190" d="M3244.63,1902.073v9.295l-5.882,5.882,5.882-5.882,5.869,5.869" transform="translate(-251.22 -260.677)" fill="none" stroke="#00bdf2" stroke-linecap="round" stroke-linejoin="round" stroke-width="2"/>
  </g>
</svg>
