<svg xmlns="http://www.w3.org/2000/svg" width="28.877" height="37.242" viewBox="0 0 28.877 37.242">
  <path id="Lesson_Plans" data-name="Lesson Plans" d="M306.733,254.251v-4.672a1.3,1.3,0,0,0-1.545-1.3l-.512.157-2.742.84-2.723.833-4.513-1.442-1-.32a1.389,1.389,0,0,0-1.4.3,1.467,1.467,0,0,0-.359,1.21v4.395a.8.8,0,0,0,1.6,0v-4.28l.685.219,3.005.96,1.767.564a1.368,1.368,0,0,0,.8-.114l1.12-.343,3.037-.93,1.185-.363v4.287A.8.8,0,0,0,306.733,254.251Zm-1.253-4.392c.175-.053.128,0,0,0Zm-.343,9.177v.238l-.389.119-2.121.649-3.415,1.046-3.294-1.052-2.011-.643-.37-.118v-.238a.8.8,0,0,0-1.6,0v.526a1.307,1.307,0,0,0,.933,1.206c.076.031.49.126.187.029l.013,0,.071.023.337.108,2.7.864,2.544.813a1.111,1.111,0,0,0,.711.078l.648-.2,4.14-1.267,1.319-.4.021-.006-.07.006.079-.008.034-.005a1.3,1.3,0,0,0,.94-.6,2.246,2.246,0,0,0,.182-1.168A.8.8,0,0,0,305.137,259.037Zm.431,1.776c.05-.005.057-.009.044-.008l-.034.005Zm-4-20.158a7.522,7.522,0,0,0,0-14.288,7.509,7.509,0,0,0-4.708,0,7.689,7.689,0,0,0-3.74,2.743,7.521,7.521,0,0,0,8.448,11.545Zm-7.93-9.157a5.93,5.93,0,0,1,10.033-1.892,6.357,6.357,0,0,1,1.058,1.726,5.8,5.8,0,0,1,.409,2.18,5.927,5.927,0,1,1-11.5-2.013Zm19.572,21.371c-.245-.532-.521-1.052-.78-1.578-.941-1.909-1.859-3.842-2.91-5.694a5.732,5.732,0,0,0-2.729-2.725,4.384,4.384,0,0,0-1.693-.3H294.688c-.322,0-.647-.01-.97,0a4.762,4.762,0,0,0-3.177,1.489,10.373,10.373,0,0,0-1.48,2.15c-.436.763-.833,1.549-1.22,2.338-.742,1.511-1.445,3.041-2.209,4.541a3.049,3.049,0,0,0,.025,3.032,3.461,3.461,0,0,0,2.322,1.487,17.556,17.556,0,0,0,2.995.079c1.009,0,2.017-.015,3.026-.016a.8.8,0,0,0,0-1.6c-1.61,0-3.219.029-4.829.011q-.262,0-.524-.009c-.077,0-.154,0-.23-.01l-.039,0-.049-.009a3.036,3.036,0,0,1-.445-.118l-.056-.018-.04-.018a2.883,2.883,0,0,1-.272-.146c-.059-.035-.115-.074-.17-.113.078.054-.088-.078-.095-.085-.056-.051-.107-.107-.158-.163l-.023-.025c-.007-.011-.018-.028-.035-.054a2.008,2.008,0,0,1-.113-.2l-.015-.028c0-.012-.009-.032-.02-.065a1.921,1.921,0,0,1-.057-.228c.029.138,0-.159,0-.2a5.639,5.639,0,0,1,.8-1.929c.38-.776.745-1.559,1.118-2.338a37.6,37.6,0,0,1,2.469-4.583,3.664,3.664,0,0,1,1.47-1.313c.015-.008.108-.05.124-.058l.109-.041c.109-.039.22-.071.332-.1.092-.024.185-.042.279-.058l.125-.011c.32-.023.646-.007.966-.007h10.448c.105,0,.21,0,.315,0,.066,0,.132.007.2.014l.092.016c.1.019.2.045.3.073.055.015.109.034.163.052.024.008.139.055.161.063.1.048.2.1.3.157.063.037.124.077.185.117,0,0,.122.091.123.089a3.736,3.736,0,0,1,.691.741,12.521,12.521,0,0,1,.673,1.136c1.043,1.886,1.979,3.834,2.93,5.767a8.912,8.912,0,0,1,.772,1.717,1.574,1.574,0,0,1,.023.369c0,.011-.015.116-.018.147-.012.058-.027.115-.043.172,0,.011-.048.131-.048.14-.023.049-.048.1-.074.144-.035.064-.075.125-.115.185l-.035.048c-.02.025-.04.049-.062.073a2.989,2.989,0,0,1-.3.294l-.023.02-.032.022c-.054.039-.11.074-.166.11a2.633,2.633,0,0,1-.249.137s-.085.036-.11.044a2.014,2.014,0,0,1-.206.058l-.013,0h-.01c-.076,0-.152,0-.228,0h-5.7a.8.8,0,0,0,0,1.6h4.388c.524,0,1.058.029,1.581,0a3.07,3.07,0,0,0,1.624-.648,3.675,3.675,0,0,0,1.292-1.73A3.235,3.235,0,0,0,313.208,252.868Zm-7.59-8.68Z" transform="translate(-284.966 -225.721)" fill="#00bdf2" stroke="#00bdf2" stroke-width="0.5"/>
</svg>
