<svg xmlns="http://www.w3.org/2000/svg" width="45.304" height="30.35" viewBox="0 0 45.304 30.35">
  <g id="Online_Comprehension_Quiz" data-name="Online Comprehension Quiz" transform="translate(0.248 0.25)">
    <path id="Path_171" data-name="Path 171" d="M2222.141,453.173c-.237.77-.429.9-1.24.9h-18.31a2.347,2.347,0,0,1-.469-.024.725.725,0,0,1-.659-.8.7.7,0,0,1,.74-.715c.3-.016.593-.013.889-.013q8.527,0,17.054.007c.371,0,.593-.061.719-.479,1.314-4.33,2.654-8.652,3.984-12.977.218-.71.155-.794-.586-.795-4.673,0-9.347.007-14.02-.014a.819.819,0,0,0-.925.671c-1.178,3.625-2.383,7.241-3.578,10.86-.312.945-.4,1.01-1.422,1.011q-3.269,0-6.539,0c-.232,0-.465.027-.714.042.019.157.025.243.039.327a2.345,2.345,0,0,1-2.306,2.886c-3.626.034-7.254.025-10.881,0a2.172,2.172,0,0,1-2.192-2.049,9.511,9.511,0,0,1,1.377-6.062c1.1-1.629,2.357-3.154,3.591-4.688a8.237,8.237,0,0,1,3.882-2.737c1.569-.511,3.182-.888,4.778-1.313.6-.16,1.005.034,1.14.508.128.451-.155.835-.751.992-1.178.309-2.354.631-3.539.909a8.041,8.041,0,0,0-4.673,3.045c-.721.941-1.433,1.892-2.207,2.789a8.548,8.548,0,0,0-2.061,6.289c.027.519.222.762.722.763q5.388.012,10.776,0a.79.79,0,0,0,.833-1,1.877,1.877,0,0,0-1.669-1.684c-1.173-.161-2.351-.292-3.526-.435-1.158-.141-2.317-.275-3.475-.422a.773.773,0,1,1,.138-1.539,1.129,1.129,0,0,1,.363.033c.4.147.637-.03.888-.327.788-.932,1.6-1.845,2.411-2.756a.783.783,0,0,1,1.189-.173.819.819,0,0,1-.029,1.208c-.466.543-.946,1.073-1.416,1.611-.185.213-.36.434-.606.732,1.154.143,2.185.292,3.221.394a4.955,4.955,0,0,1,2.923.972.807.807,0,0,0,.488.116c2.441.006,4.883,0,7.324.008a.554.554,0,0,0,.622-.466c.789-2.434,1.6-4.861,2.4-7.291.036-.109.051-.226.08-.355l-4.79-2.51c-.739-.387-.966-.792-.707-1.268s.672-.5,1.411-.112l4.618,2.406c.161-.487.294-.9.432-1.3a2,2,0,0,1,2.235-1.628q7.141,0,14.282,0a1.927,1.927,0,0,1,1.969,2.673Q2224.265,446.288,2222.141,453.173Z" transform="translate(-2181.7 -424.232)" fill="#00bdf2" stroke="#00bdf2" stroke-width="0.5"/>
    <path id="Path_173" data-name="Path 173" d="M2390.217,330.3a6.36,6.36,0,1,1,.025-12.72,6.36,6.36,0,1,1-.025,12.72Zm.057-11.161a4.807,4.807,0,1,0,4.761,4.92A4.808,4.808,0,0,0,2390.274,319.138Z" transform="translate(-2372.984 -317.578)" fill="#00bdf2" stroke="#00bdf2" stroke-width="0.5"/>
    <path id="Path_174" data-name="Path 174" d="M2322.546,368.976a2.2,2.2,0,0,1-.55-.234c-1.231-1.078-2.46-2.159-3.667-3.263a.761.761,0,0,1,1-1.139c1.238,1.07,2.468,2.15,3.658,3.272a1.01,1.01,0,0,1,.128.852C2323.055,368.675,2322.74,368.813,2322.546,368.976Z" transform="translate(-2292.652 -359.274)" fill="#00bdf2" stroke="#00bdf2" stroke-width="0.5"/>
    <path id="Path_175" data-name="Path 175" d="M2194.8,366.464c-.858.764-1.7,1.551-2.588,2.275a1.131,1.131,0,0,1-.892.157c-.22-.061-.365-.4-.562-.631a3.231,3.231,0,0,1,.407-.635q1.741-1.579,3.51-3.126a.737.737,0,0,1,1.115.037.8.8,0,0,1-.1,1.122C2195.405,365.942,2195.1,366.2,2194.8,366.464Z" transform="translate(-2152.128 -359.374)" fill="#00bdf2" stroke="#00bdf2" stroke-width="0.5"/>
    <path id="Path_176" data-name="Path 176" d="M2271.607,342.757a.761.761,0,0,1-.734-.841c-.01-.7,0-1.391,0-2.087s-.011-1.392,0-2.087a.732.732,0,0,1,.763-.8.749.749,0,0,1,.774.8q.022,2.087,0,4.174A.786.786,0,0,1,2271.607,342.757Z" transform="translate(-2236.972 -334.911)" fill="#00bdf2" stroke="#00bdf2" stroke-width="0.5"/>
  </g>
</svg>
