<svg xmlns="http://www.w3.org/2000/svg" width="39.734" height="33.188" viewBox="0 0 39.734 33.188">
  <g id="_Printable_Take_Home_Books_and_more" data-name=" Printable Take Home Books and more" transform="translate(-178.373 -924.793)">
    <path id="Path_177" data-name="Path 177" d="M217.954,955.525v-23.6a.776.776,0,0,0-.136-.439l-4.27-6.207a.776.776,0,0,0-.643-.336c-8.674.055-13.247,2.467-14.666,3.377-1.419-.91-5.992-3.323-14.666-3.377a.76.76,0,0,0-.643.336l-4.27,6.207a.776.776,0,0,0-.136.439v23.638s0,.005,0,.008a.771.771,0,0,0,.773.767h15.886a3.872,3.872,0,0,0,6.11,0h15.889a.775.775,0,0,0,.775-.775C217.957,955.551,217.955,955.538,217.954,955.525Zm-1.55-2.455-2.72-3.954v-20.9l2.72,3.955Zm-32.062-26.563c7.928.191,12.047,2.469,13.121,3.162v18.31a.775.775,0,1,0,1.55,0V929.67c1.078-.7,5.2-2.971,13.121-3.162v22.086c-8.175.187-12.52,2.483-13.9,3.366-1.376-.883-5.721-3.179-13.9-3.366Zm-1.55,1.7v20.9l-2.72,3.954v-20.9Zm18.095,26.577a.774.774,0,0,0-.661.371,2.323,2.323,0,0,1-3.976,0,.774.774,0,0,0-.662-.371H180.771l3.2-4.654c9.579.149,13.743,3.341,13.782,3.371a.777.777,0,0,0,.966,0c.042-.032,4.205-3.224,13.784-3.373l3.2,4.654Z" fill="#00bdf2" stroke="#00bdf2" stroke-width="0.3"/>
    <path id="Path_178" data-name="Path 178" d="M220.375,946.868a31.145,31.145,0,0,0-6.57-1.374.775.775,0,1,0-.164,1.541,29.59,29.59,0,0,1,6.241,1.3.775.775,0,1,0,.492-1.47Z" transform="translate(-26.024 -15.531)" fill="#00bdf2" stroke="#00bdf2" stroke-width="0.3"/>
    <path id="Path_179" data-name="Path 179" d="M220.375,963.8a31.129,31.129,0,0,0-6.57-1.374.775.775,0,1,0-.164,1.541,29.6,29.6,0,0,1,6.241,1.3.775.775,0,1,0,.492-1.469Z" transform="translate(-26.024 -28.331)" fill="#00bdf2" stroke="#00bdf2" stroke-width="0.3"/>
    <path id="Path_180" data-name="Path 180" d="M220.375,980.731a31.137,31.137,0,0,0-6.57-1.374.775.775,0,1,0-.164,1.541,29.582,29.582,0,0,1,6.241,1.3.775.775,0,0,0,.492-1.47Z" transform="translate(-26.024 -41.129)" fill="#00bdf2" stroke="#00bdf2" stroke-width="0.3"/>
    <path id="Path_181" data-name="Path 181" d="M273.831,948.378a.773.773,0,0,0,.246-.04,29.589,29.589,0,0,1,6.242-1.3.775.775,0,1,0-.164-1.541,31.147,31.147,0,0,0-6.57,1.374.775.775,0,0,0,.246,1.51Z" transform="translate(-71.46 -15.531)" fill="#00bdf2" stroke="#00bdf2" stroke-width="0.3"/>
    <path id="Path_182" data-name="Path 182" d="M273.831,965.309a.773.773,0,0,0,.246-.04,29.589,29.589,0,0,1,6.242-1.3.775.775,0,1,0-.164-1.541,31.139,31.139,0,0,0-6.57,1.374.775.775,0,0,0,.246,1.51Z" transform="translate(-71.46 -28.33)" fill="#00bdf2" stroke="#00bdf2" stroke-width="0.3"/>
    <path id="Path_183" data-name="Path 183" d="M273.831,982.241a.779.779,0,0,0,.246-.04,29.581,29.581,0,0,1,6.242-1.3.775.775,0,1,0-.164-1.541,31.147,31.147,0,0,0-6.57,1.374.775.775,0,0,0,.246,1.51Z" transform="translate(-71.46 -41.129)" fill="#00bdf2" stroke="#00bdf2" stroke-width="0.3"/>
  </g>
</svg>
