<svg xmlns="http://www.w3.org/2000/svg" width="36.555" height="45.724" viewBox="0 0 36.555 45.724">
  <g id="Parent_Icon_-_Grey" data-name="Parent Icon - Grey" transform="translate(-3817.24 -292.394)" opacity="0.5">
    <path id="Path_116" data-name="Path 116" d="M3860,338.583h-35.514v-18.8a35.732,35.732,0,0,1,1.379-3.772,12.549,12.549,0,0,1,6.582-6.013c-5.185-5.032-5.82-10.246-1.8-14.366a9.048,9.048,0,0,1,12.875-.167,8.824,8.824,0,0,1,2.769,6.471,9.311,9.311,0,0,1-4.487,7.993l2.355,1.2c.764-4.179,2.749-6.434,6.132-7.021a6.978,6.978,0,0,1,7.194,3.471c2,3.692.953,6.828-2.043,9.51a9.97,9.97,0,0,1,5.594,9.816c-.1,3.172-.045,6.349,0,9.523A2.236,2.236,0,0,1,3860,338.583Zm-18.264-3.074V334.3c0-2.749.015-5.5,0-8.246a9.778,9.778,0,0,1,4.125-8.142c-.088-.229-.135-.39-.21-.537a9.535,9.535,0,0,0-10.894-4.922,9.434,9.434,0,0,0-7.212,9.137c-.039,4.355-.012,8.711-.005,13.066a6.626,6.626,0,0,0,.11.848Zm16.233-.024c0-3.317.032-6.522-.009-9.726a6.5,6.5,0,0,0-6.061-6.466c-3.455-.245-6.661,2.008-6.964,5.425-.314,3.547-.07,7.143-.07,10.766Zm-20.834-39.574a6.093,6.093,0,1,0,6.119,6.121A6.078,6.078,0,0,0,3837.137,295.91Zm18.294,15.279a4.054,4.054,0,1,0-4.035,4.018A4.049,4.049,0,0,0,3855.432,311.19Z" transform="translate(-7.248 -0.465)" fill="#a7a9ab"/>
  </g>
</svg>
