<svg id="plus_icon" data-name="plus icon" xmlns="http://www.w3.org/2000/svg" width="16.914" height="16.914" viewBox="0 0 16.914 16.914">
  <g id="Group_39" data-name="Group 39">
    <path id="Path_68" data-name="Path 68" d="M88.693,94.165h4.32v4.32a.576.576,0,1,0,1.152,0v-4.32h4.32a.576.576,0,1,0,0-1.152h-4.32v-4.32a.576.576,0,0,0-1.152,0v4.32h-4.32a.576.576,0,0,0,0,1.152Z" transform="translate(-85.132 -85.132)" fill="#747474"/>
    <path id="Path_69" data-name="Path 69" d="M8.457,16.914A8.457,8.457,0,1,0,0,8.457,8.464,8.464,0,0,0,8.457,16.914Zm0-15.763A7.305,7.305,0,1,1,1.152,8.457,7.309,7.309,0,0,1,8.457,1.152Z" fill="#747474"/>
  </g>
</svg>
