<svg width="24" height="24" viewBox="0 0 24 24" fill="none" xmlns="http://www.w3.org/2000/svg">
<path d="M12 20.5C16.9705 20.5 21 16.339 21 13.5C21 10.661 16.9705 6.5 12 6.5C7.0295 6.5 3 10.664 3 13.5C3 16.336 7.0295 20.5 12 20.5Z" stroke="white" stroke-width="2" stroke-linejoin="round"/>
<path d="M12 16.5C12.7956 16.5 13.5587 16.1839 14.1213 15.6213C14.6839 15.0587 15 14.2956 15 13.5C15 12.7044 14.6839 11.9413 14.1213 11.3787C13.5587 10.8161 12.7956 10.5 12 10.5C11.2044 10.5 10.4413 10.8161 9.87868 11.3787C9.31607 11.9413 9 12.7044 9 13.5C9 14.2956 9.31607 15.0587 9.87868 15.6213C10.4413 16.1839 11.2044 16.5 12 16.5Z" stroke="white" stroke-width="2" stroke-linejoin="round"/>
<path d="M6.63281 5.633L7.92981 7.443M17.8133 5.855L16.5158 7.665M12.0053 3.5V6.5" stroke="white" stroke-width="2" stroke-linecap="round"/>
</svg>
