<svg width="90" height="91" viewBox="0 0 90 91" fill="none" xmlns="http://www.w3.org/2000/svg">
<path fill-rule="evenodd" clip-rule="evenodd" d="M24.2206 33.4996C21.8996 38.5759 21.7247 41.2262 23.6157 42.4024C23.99 42.6485 26.873 43.2665 30.0094 43.8006C33.1472 44.3388 38.6868 45.3925 42.3257 46.1167C51.6007 47.9856 51.785 48.0163 52.3965 47.6326C52.7037 47.4227 53.2458 47.187 53.5913 47.0496C54.5355 46.7297 54.7895 46.0793 54.3968 45.2097C54.119 44.5549 53.5185 44.132 50.2261 42.1681C45.7371 39.5056 45.346 39.2774 37.4597 34.2295C30.5113 29.7821 29.2772 29.0819 28.0653 29.0427C26.5927 28.9737 25.9392 29.7444 24.2193 33.501L24.2206 33.4996Z" fill="#F7800F"/>
<mask id="mask0_288_6017" style="mask-type:luminance" maskUnits="userSpaceOnUse" x="47" y="1" width="30" height="31">
<path d="M47.1201 11.9131L56.4701 1.99393L76.9256 21.2756L67.5757 31.1948L47.1201 11.9131Z" fill="white"/>
</mask>
<g mask="url(#mask0_288_6017)">
<path fill-rule="evenodd" clip-rule="evenodd" d="M50.1055 9.71739C50.0055 10.0498 50.0593 10.6 50.2366 10.9805C50.3946 11.3428 52.5872 13.9794 55.0987 16.8463C57.6129 19.7131 60.6781 23.2789 61.935 24.7498C66.8528 30.5952 67.2113 30.8967 68.5612 30.0331C69.5147 29.4384 69.3306 28.1957 67.7329 24.6602C66.9269 22.9014 65.0308 18.0181 63.4872 13.8208C61.7653 9.16936 60.4142 5.86638 59.9756 5.34629C58.9448 4.09102 58.0857 4.20747 54.4574 6.19905C51.3887 7.86472 50.4381 8.64416 50.1055 9.71739Z" fill="#F7800F"/>
</g>
<mask id="mask1_288_6017" style="mask-type:luminance" maskUnits="userSpaceOnUse" x="19" y="55" width="36" height="36">
<path d="M19.749 76.2797L39.4878 55.3392L54.6476 69.629L34.9088 90.5695L19.749 76.2797Z" fill="white"/>
</mask>
<g mask="url(#mask1_288_6017)">
<path fill-rule="evenodd" clip-rule="evenodd" d="M24.737 71.4483C24.605 71.9665 25.9225 80.116 26.3993 81.8845C26.7691 83.1594 27.7145 84.014 28.7026 83.9125C29.3805 83.8751 36.409 80.2442 49.1225 73.4252C51.2704 72.281 53.2716 71.0687 53.5547 70.7684C54.2664 70.0134 53.9797 69.1031 52.7722 68.0352C51.9423 67.3258 51.646 67.2234 50.823 67.3374C50.3127 67.4262 48.0285 67.7655 45.7636 68.123C40.775 68.9052 34.1332 69.6251 29.752 69.8403C25.6109 70.0657 24.9914 70.2675 24.7357 71.4496L24.737 71.4483Z" fill="#F7800F"/>
</g>
</svg>
